<?xml version="1.0" encoding="utf-8"?>
<!-- Generator: Adobe Illustrator 15.0.0, SVG Export Plug-In . SVG Version: 6.00 Build 0)  -->
<!DOCTYPE svg PUBLIC "-//W3C//DTD SVG 1.1//EN" "http://www.w3.org/Graphics/SVG/1.1/DTD/svg11.dtd">
<svg version="1.1" id="Layer_1" xmlns="http://www.w3.org/2000/svg" xmlns:xlink="http://www.w3.org/1999/xlink" x="0px" y="0px"
	 width="144.08px" height="143.652px" viewBox="0 0 144.08 143.652" enable-background="new 0 0 144.08 143.652"
	 xml:space="preserve">
<g>
	<path fill="#EF4136" d="M138.787,68.122c0,25.466-14.262,47.601-35.232,58.854c-5.553,2.979-5.887,6.174-15.867,8.571
		c-9.981,2.397-13.077,6.73-17.731,6.73c-7.376,0-9.666-7.833-19.024-10.815c-6.081-2.026-11.773-4.903-16.936-8.49
		C16.65,110.918,5.293,90.847,5.293,68.122c0-36.863,29.883-66.747,66.747-66.747C108.904,1.375,138.787,31.259,138.787,68.122z"/>
	
		<circle fill="#EF4136" stroke="#FFFFFF" stroke-width="3" stroke-linecap="round" stroke-miterlimit="10" cx="72.04" cy="68.122" r="60.072"/>
	<g>
		<path fill="#FFFFFF" d="M75.341,84.34c0,0.682-0.707,1.391-2.121,2.131c-1.412,0.74-2.775,1.109-4.088,1.109
			c-2.747,0-4.179-1.419-4.298-4.26c-1.512,2.961-3.86,4.44-7.043,4.44c-1.712,0-3.125-0.511-4.238-1.53
			c-1.115-1.02-1.672-2.33-1.672-3.93c0-3.279,1.961-5.881,5.886-7.801c1.347-0.639,3.686-1.279,7.015-1.92v-1.5
			c0-3.519-0.18-5.839-0.54-6.959c-0.641-2.04-2.081-3.06-4.32-3.06c-1.4,0-2.57,0.38-3.51,1.14c-0.94,0.76-1.41,1.72-1.41,2.88
			c0,0.321,0.244,0.48,0.733,0.48c0.488,0,0.928,0.24,1.32,0.72c0.391,0.48,0.587,1.02,0.587,1.62c0,1.761-0.871,2.641-2.613,2.641
			c-0.911,0-1.663-0.311-2.257-0.931c-0.594-0.62-0.891-1.409-0.891-2.37c0-1.88,0.74-3.5,2.22-4.86c1.64-1.479,3.92-2.22,6.84-2.22
			c4.4,0,7.1,1.2,8.1,3.6c0.36,0.92,0.54,2.74,0.54,5.46v11.22c0,1.841,0.02,2.921,0.06,3.24c0.2,1.44,0.78,2.159,1.74,2.159
			c1.12,0,2.04-0.398,2.76-1.199c0.4-0.439,0.699-0.66,0.9-0.66C75.24,83.98,75.341,84.101,75.341,84.34z M64.781,77.98v-4.38
			c-2.957,0.681-5.077,1.57-6.358,2.67c-1.281,1.101-1.922,2.571-1.922,4.41c0,1.28,0.365,2.331,1.094,3.149
			c0.729,0.82,1.646,1.23,2.75,1.23c1.695,0,3.054-0.96,4.08-2.88C64.662,81.74,64.781,80.342,64.781,77.98z"/>
		<path fill="#FFFFFF" d="M93.939,86.681c0,0.36-0.34,0.54-1.02,0.54c0.039,0-0.439-0.041-1.439-0.12
			c-1.201-0.079-2.201-0.12-3-0.12h-6.24c-0.201,0.16-0.441,0.24-0.721,0.24c-0.439,0-0.66-0.148-0.66-0.444
			c0-0.424,0.4-0.636,1.201-0.636c1.52-0.039,2.35-0.15,2.49-0.33c0.139-0.18,0.209-1.01,0.209-2.49v-18.18
			c-0.039-1-0.09-1.59-0.15-1.77c-0.059-0.18-0.309-0.27-0.75-0.27h-1.738c-0.162,0-0.361,0-0.602,0c-0.439,0-0.66-0.14-0.66-0.42
			c0-0.245,0.336-0.384,1.006-0.42c2.645-0.117,4.914-0.74,6.809-1.87l0.594-0.351c0.314,0.599,0.473,1.697,0.473,3.292
			c0-0.08,0,0.12,0,0.598c0,0.48,0,1.258,0,2.335v16.343c0,1.596,0.029,2.533,0.09,2.812s0.27,0.46,0.631,0.539
			c0.6,0.16,1.479,0.24,2.639,0.24C93.66,86.201,93.939,86.361,93.939,86.681z M89.439,49.3c0,1.8-0.898,2.7-2.699,2.7
			c-0.76,0-1.4-0.25-1.92-0.75c-0.52-0.5-0.779-1.11-0.779-1.83c0-1.879,0.898-2.82,2.699-2.82S89.439,47.5,89.439,49.3z"/>
	</g>
</g>
</svg>
