<?xml version="1.0" encoding="utf-8"?>
<!-- Generator: Adobe Illustrator 15.0.0, SVG Export Plug-In . SVG Version: 6.00 Build 0)  -->
<!DOCTYPE svg PUBLIC "-//W3C//DTD SVG 1.1//EN" "http://www.w3.org/Graphics/SVG/1.1/DTD/svg11.dtd">
<svg version="1.1" id="Layer_1" xmlns="http://www.w3.org/2000/svg" xmlns:xlink="http://www.w3.org/1999/xlink" x="0px" y="0px"
	 width="133.493px" height="133.493px" viewBox="0 0 133.493 133.493" enable-background="new 0 0 133.493 133.493"
	 xml:space="preserve">
<g>
	<circle fill="#EF4136" cx="66.747" cy="66.747" r="66.747"/>
	<g>
		<circle fill="#EF4136" cx="66.747" cy="66.747" r="60.072"/>
		
			<circle fill="none" stroke="#FFFFFF" stroke-width="3" stroke-linecap="round" stroke-miterlimit="10" stroke-dasharray="5.8965,9.8275" cx="66.747" cy="66.747" r="60.072"/>
	</g>
	<g>
		<path fill="#FFFFFF" d="M70.048,82.965c0,0.682-0.707,1.391-2.121,2.131c-1.412,0.74-2.775,1.109-4.088,1.109
			c-2.747,0-4.179-1.419-4.298-4.26c-1.512,2.961-3.86,4.44-7.043,4.44c-1.712,0-3.125-0.511-4.238-1.53
			c-1.115-1.02-1.672-2.33-1.672-3.93c0-3.279,1.961-5.881,5.886-7.801c1.347-0.639,3.686-1.279,7.015-1.92v-1.5
			c0-3.519-0.18-5.839-0.54-6.959c-0.641-2.04-2.081-3.06-4.32-3.06c-1.4,0-2.57,0.38-3.51,1.14c-0.94,0.76-1.41,1.72-1.41,2.88
			c0,0.321,0.244,0.48,0.733,0.48c0.488,0,0.928,0.24,1.32,0.72c0.391,0.48,0.587,1.02,0.587,1.62c0,1.761-0.871,2.641-2.613,2.641
			c-0.911,0-1.663-0.311-2.257-0.931c-0.594-0.62-0.891-1.41-0.891-2.37c0-1.88,0.74-3.5,2.22-4.86c1.64-1.479,3.92-2.22,6.84-2.22
			c4.4,0,7.1,1.2,8.1,3.6c0.36,0.92,0.54,2.74,0.54,5.46v11.22c0,1.841,0.02,2.921,0.06,3.24c0.2,1.44,0.78,2.159,1.74,2.159
			c1.12,0,2.04-0.398,2.76-1.199c0.4-0.439,0.699-0.66,0.9-0.66C69.946,82.605,70.048,82.726,70.048,82.965z M59.487,76.605v-4.38
			c-2.957,0.681-5.077,1.57-6.358,2.67c-1.281,1.101-1.922,2.571-1.922,4.41c0,1.28,0.365,2.331,1.094,3.149
			c0.729,0.82,1.646,1.23,2.75,1.23c1.695,0,3.054-0.96,4.08-2.88C59.368,80.365,59.487,78.967,59.487,76.605z"/>
		<path fill="#FFFFFF" d="M88.646,85.306c0,0.36-0.341,0.54-1.021,0.54c0.04,0-0.439-0.041-1.439-0.12c-1.2-0.079-2.2-0.12-3-0.12
			h-6.24c-0.201,0.16-0.44,0.24-0.72,0.24c-0.44,0-0.66-0.148-0.66-0.444c0-0.424,0.399-0.636,1.2-0.636
			c1.52-0.039,2.35-0.15,2.49-0.33c0.139-0.18,0.209-1.01,0.209-2.49v-18.18c-0.039-1-0.09-1.59-0.149-1.77
			c-0.06-0.18-0.31-0.27-0.75-0.27h-1.739c-0.161,0-0.361,0-0.601,0c-0.44,0-0.66-0.14-0.66-0.42c0-0.245,0.335-0.384,1.006-0.42
			c2.644-0.117,4.913-0.74,6.808-1.87l0.594-0.351c0.314,0.599,0.473,1.697,0.473,3.292c0-0.08,0,0.12,0,0.598
			c0,0.48,0,1.258,0,2.335v16.343c0,1.596,0.03,2.533,0.09,2.812c0.061,0.279,0.271,0.46,0.631,0.539c0.6,0.16,1.479,0.24,2.64,0.24
			C88.366,84.826,88.646,84.986,88.646,85.306z M84.146,47.925c0,1.8-0.899,2.7-2.7,2.7c-0.76,0-1.4-0.25-1.92-0.75
			c-0.52-0.5-0.779-1.11-0.779-1.83c0-1.879,0.899-2.82,2.699-2.82C83.247,45.226,84.146,46.125,84.146,47.925z"/>
	</g>
</g>
</svg>
