<?xml version="1.0" encoding="utf-8"?>
<!-- Generator: Adobe Illustrator 15.0.0, SVG Export Plug-In . SVG Version: 6.00 Build 0)  -->
<!DOCTYPE svg PUBLIC "-//W3C//DTD SVG 1.0//EN" "http://www.w3.org/TR/2001/REC-SVG-20010904/DTD/svg10.dtd">
<svg version="1.0" id="Layer_1" xmlns="http://www.w3.org/2000/svg" xmlns:xlink="http://www.w3.org/1999/xlink" x="0px" y="0px"
	 width="249px" height="380px" viewBox="0 0 249 380" enable-background="new 0 0 249 380" xml:space="preserve">
<g>
	<g>
		<g>
			<path fill="#414042" d="M196.327,149.505c-0.596-0.208-14.575-5.365-14.575-29.211c0-13.233,4.412-22.238,8.112-27.462
				l1.225,0.867c-3.575,5.046-7.837,13.756-7.837,26.595c0,22.72,13.436,27.747,13.571,27.796L196.327,149.505z"/>
		</g>
		<g>
			<g>
				<polygon fill="#414042" points="191.971,100.232 189.39,94.777 183.672,92.848 196.574,86.703 				"/>
			</g>
		</g>
	</g>
	<g>
		<g>
			<g>
				<path fill="#EF4237" d="M45.356,82.5c-20.31,0-36.833-16.523-36.833-36.833c0-20.311,16.523-36.834,36.833-36.834
					s36.833,16.523,36.833,36.834C82.189,65.977,65.666,82.5,45.356,82.5z"/>
				<path fill="#FFFFFF" d="M45.356,9.833c19.79,0,35.833,16.043,35.833,35.834c0,19.79-16.043,35.833-35.833,35.833
					S9.523,65.457,9.523,45.667C9.523,25.876,25.566,9.833,45.356,9.833 M45.356,7.833c-20.861,0-37.833,16.972-37.833,37.834
					c0,20.861,16.972,37.833,37.833,37.833s37.833-16.972,37.833-37.833C83.189,24.805,66.218,7.833,45.356,7.833L45.356,7.833z"/>
			</g>
		</g>
		<g>
			<path fill="#FFFFFF" d="M27.861,32.202c0.441-0.072,1.089-0.126,1.828-0.126c0.9,0,1.53,0.135,1.962,0.477
				c0.369,0.288,0.567,0.72,0.567,1.278c0,0.765-0.549,1.296-1.071,1.485v0.027c0.423,0.171,0.657,0.567,0.81,1.125
				c0.189,0.693,0.369,1.486,0.486,1.72h-1.405c-0.09-0.18-0.243-0.666-0.414-1.414c-0.171-0.765-0.432-0.963-0.999-0.972h-0.405
				v2.386h-1.359V32.202z M29.221,34.812h0.54c0.684,0,1.089-0.342,1.089-0.874c0-0.549-0.378-0.837-1.008-0.837
				c-0.333,0-0.522,0.018-0.621,0.045V34.812z"/>
			<path fill="#FFFFFF" d="M34.207,36.424c0.036,0.567,0.603,0.837,1.242,0.837c0.468,0,0.846-0.063,1.215-0.189L36.844,38
				c-0.45,0.189-1,0.279-1.593,0.279c-1.495,0-2.35-0.864-2.35-2.242c0-1.116,0.693-2.35,2.224-2.35
				c1.422,0,1.962,1.107,1.962,2.197c0,0.234-0.027,0.441-0.045,0.54H34.207z M35.818,35.488c0-0.333-0.144-0.892-0.774-0.892
				c-0.576,0-0.811,0.531-0.847,0.892H35.818z"/>
			<path fill="#FFFFFF" d="M37.896,37c0.252,0.153,0.774,0.324,1.18,0.324c0.414,0,0.585-0.135,0.585-0.36
				c0-0.234-0.135-0.342-0.639-0.513c-0.918-0.306-1.27-0.801-1.26-1.324c0-0.828,0.702-1.449,1.792-1.449
				c0.513,0,0.963,0.126,1.233,0.261l-0.234,0.945c-0.198-0.108-0.585-0.252-0.954-0.252c-0.333,0-0.522,0.135-0.522,0.351
				c0,0.216,0.171,0.324,0.711,0.513c0.837,0.288,1.179,0.72,1.188,1.359c0,0.828-0.639,1.432-1.899,1.432
				c-0.576,0-1.089-0.135-1.423-0.315L37.896,37z"/>
			<path fill="#FFFFFF" d="M42.864,36.424c0.036,0.567,0.603,0.837,1.242,0.837c0.468,0,0.846-0.063,1.215-0.189L45.502,38
				c-0.45,0.189-0.999,0.279-1.593,0.279c-1.495,0-2.35-0.864-2.35-2.242c0-1.116,0.693-2.35,2.224-2.35
				c1.423,0,1.963,1.107,1.963,2.197c0,0.234-0.027,0.441-0.045,0.54H42.864z M44.476,35.488c0-0.333-0.144-0.892-0.774-0.892
				c-0.576,0-0.811,0.531-0.847,0.892H44.476z"/>
			<path fill="#FFFFFF" d="M50.227,37.126c0,0.415,0.018,0.819,0.072,1.062h-1.233l-0.081-0.441h-0.027
				c-0.288,0.351-0.738,0.54-1.26,0.54c-0.892,0-1.422-0.648-1.422-1.351c0-1.143,1.026-1.684,2.583-1.684V35.2
				c0-0.243-0.126-0.576-0.801-0.576c-0.45,0-0.927,0.153-1.215,0.333l-0.252-0.882c0.306-0.171,0.909-0.396,1.71-0.396
				c1.467,0,1.927,0.864,1.927,1.909V37.126z M48.903,36.109c-0.72,0-1.278,0.171-1.278,0.693c0,0.351,0.234,0.522,0.541,0.522
				c0.333,0,0.621-0.225,0.711-0.504c0.018-0.072,0.027-0.153,0.027-0.234V36.109z"/>
			<path fill="#FFFFFF" d="M51.315,35.236c0-0.648-0.009-1.072-0.036-1.45h1.17l0.054,0.81h0.036
				c0.225-0.648,0.756-0.918,1.188-0.918c0.126,0,0.189,0.009,0.288,0.027v1.288c-0.108-0.018-0.216-0.036-0.369-0.036
				c-0.504,0-0.846,0.27-0.936,0.693c-0.018,0.09-0.027,0.198-0.027,0.306v2.233h-1.368V35.236z"/>
			<path fill="#FFFFFF" d="M57.967,38.071c-0.243,0.117-0.702,0.207-1.224,0.207c-1.422,0-2.332-0.873-2.332-2.25
				c0-1.288,0.882-2.341,2.521-2.341c0.36,0,0.756,0.063,1.044,0.171l-0.216,1.017c-0.162-0.072-0.405-0.135-0.765-0.135
				c-0.72,0-1.188,0.513-1.179,1.233c0,0.801,0.54,1.233,1.206,1.233c0.324,0,0.576-0.054,0.783-0.144L57.967,38.071z"/>
			<path fill="#FFFFFF" d="M58.722,31.796h1.368v2.521h0.018c0.144-0.198,0.324-0.351,0.54-0.459
				c0.207-0.108,0.459-0.171,0.711-0.171c0.873,0,1.54,0.604,1.54,1.936v2.566h-1.369v-2.422c0-0.576-0.198-0.972-0.711-0.972
				c-0.36,0-0.585,0.234-0.685,0.486c-0.036,0.081-0.045,0.198-0.045,0.297v2.611h-1.368V31.796z"/>
			<path fill="#FFFFFF" d="M45.854,48.988c-0.126-0.135-0.252-0.27-0.396-0.432c-0.396,0.306-0.945,0.531-1.666,0.531
				c-1.467,0-2.115-0.864-2.115-1.72c0-0.801,0.459-1.377,1.152-1.747v-0.027c-0.261-0.297-0.468-0.738-0.468-1.179
				c0-0.765,0.612-1.603,1.836-1.603c0.937,0,1.639,0.549,1.639,1.422c0,0.612-0.36,1.144-1.198,1.558l-0.009,0.036
				c0.351,0.396,0.72,0.837,1.018,1.144c0.243-0.387,0.432-0.945,0.513-1.485h1.225c-0.162,0.927-0.468,1.71-1.008,2.305
				c0.342,0.396,0.693,0.792,1.071,1.197H45.854z M44.818,47.791c-0.369-0.369-0.864-0.937-1.368-1.495
				c-0.252,0.189-0.477,0.45-0.477,0.846c0,0.522,0.387,0.955,1.026,0.955C44.341,48.097,44.638,47.962,44.818,47.791z
				 M44.134,43.667c-0.351,0-0.54,0.306-0.54,0.622c0,0.306,0.135,0.576,0.423,0.873c0.441-0.297,0.657-0.54,0.657-0.891
				c0-0.288-0.171-0.604-0.522-0.604H44.134z"/>
			<path fill="#FFFFFF" d="M30.769,58.231l-0.432,1.558h-1.414l1.846-6.068h1.8l1.891,6.068h-1.485l-0.468-1.558H30.769z
				 M32.308,57.205l-0.378-1.287c-0.108-0.36-0.216-0.811-0.306-1.17h-0.018c-0.09,0.36-0.18,0.819-0.279,1.17l-0.36,1.287H32.308z"
				/>
			<path fill="#FFFFFF" d="M35.161,56.791c0-0.549-0.018-1.008-0.036-1.404h1.188l0.063,0.612h0.027
				c0.18-0.288,0.621-0.711,1.359-0.711c0.9,0,1.576,0.604,1.576,1.9v2.602h-1.369v-2.44c0-0.567-0.198-0.954-0.693-0.954
				c-0.378,0-0.604,0.261-0.703,0.513c-0.036,0.09-0.045,0.216-0.045,0.342v2.539h-1.368V56.791z"/>
			<path fill="#FFFFFF" d="M44.099,58.726c0,0.414,0.018,0.819,0.072,1.062h-1.233l-0.081-0.441h-0.027
				c-0.288,0.351-0.738,0.54-1.26,0.54c-0.891,0-1.422-0.648-1.422-1.351c0-1.143,1.026-1.684,2.583-1.684V56.8
				c0-0.243-0.126-0.576-0.801-0.576c-0.45,0-0.927,0.153-1.215,0.333l-0.252-0.882c0.306-0.171,0.909-0.396,1.71-0.396
				c1.467,0,1.927,0.864,1.927,1.909V58.726z M42.775,57.709c-0.72,0-1.278,0.171-1.278,0.693c0,0.351,0.234,0.522,0.541,0.522
				c0.333,0,0.621-0.225,0.711-0.504c0.018-0.072,0.027-0.153,0.027-0.234V57.709z"/>
			<path fill="#FFFFFF" d="M45.187,53.396h1.368v6.392h-1.368V53.396z"/>
			<path fill="#FFFFFF" d="M48.688,55.386l0.657,2.17c0.072,0.252,0.162,0.585,0.216,0.819h0.036
				c0.054-0.243,0.126-0.567,0.189-0.828l0.549-2.161h1.458l-1.026,2.899c-0.63,1.755-1.054,2.449-1.549,2.89
				c-0.468,0.415-0.972,0.567-1.314,0.604l-0.297-1.152c0.171-0.036,0.387-0.117,0.594-0.234c0.207-0.108,0.441-0.333,0.567-0.549
				c0.045-0.072,0.072-0.144,0.072-0.198s-0.009-0.117-0.054-0.225l-1.62-4.033H48.688z"/>
			<path fill="#FFFFFF" d="M52.215,58.6c0.252,0.153,0.774,0.324,1.18,0.324c0.414,0,0.585-0.135,0.585-0.36
				c0-0.234-0.135-0.342-0.639-0.513c-0.918-0.306-1.27-0.801-1.26-1.324c0-0.828,0.702-1.449,1.792-1.449
				c0.513,0,0.963,0.126,1.233,0.261l-0.234,0.945c-0.198-0.108-0.585-0.252-0.954-0.252c-0.333,0-0.522,0.135-0.522,0.351
				c0,0.216,0.171,0.324,0.711,0.513c0.837,0.288,1.179,0.72,1.188,1.359c0,0.829-0.639,1.432-1.899,1.432
				c-0.576,0-1.089-0.135-1.423-0.315L52.215,58.6z"/>
			<path fill="#FFFFFF" d="M57.543,54.162c0,0.378-0.279,0.684-0.738,0.684c-0.433,0-0.711-0.306-0.711-0.684
				c0-0.387,0.288-0.685,0.729-0.685C57.265,53.478,57.535,53.775,57.543,54.162z M56.13,59.789v-4.402h1.368v4.402H56.13z"/>
			<path fill="#FFFFFF" d="M58.587,58.6c0.252,0.153,0.774,0.324,1.18,0.324c0.414,0,0.585-0.135,0.585-0.36
				c0-0.234-0.135-0.342-0.639-0.513c-0.918-0.306-1.27-0.801-1.26-1.324c0-0.828,0.702-1.449,1.792-1.449
				c0.513,0,0.963,0.126,1.233,0.261l-0.234,0.945c-0.198-0.108-0.585-0.252-0.954-0.252c-0.333,0-0.522,0.135-0.522,0.351
				c0,0.216,0.171,0.324,0.711,0.513c0.837,0.288,1.179,0.72,1.188,1.359c0,0.829-0.639,1.432-1.899,1.432
				c-0.576,0-1.089-0.135-1.423-0.315L58.587,58.6z"/>
		</g>
	</g>
	<g>
		<g>
			<g>
				<path fill="#EF4237" d="M202.807,82.5c-20.31,0-36.832-16.523-36.832-36.833c0-20.311,16.522-36.834,36.832-36.834
					c20.311,0,36.834,16.523,36.834,36.834C239.641,65.977,223.117,82.5,202.807,82.5z"/>
				<path fill="#FFFFFF" d="M202.807,9.833c19.791,0,35.834,16.043,35.834,35.834c0,19.79-16.043,35.833-35.834,35.833
					c-19.789,0-35.832-16.043-35.832-35.833C166.975,25.876,183.018,9.833,202.807,9.833 M202.807,7.833
					c-20.86,0-37.832,16.972-37.832,37.834c0,20.861,16.972,37.833,37.832,37.833c20.861,0,37.834-16.972,37.834-37.833
					C240.641,24.805,223.668,7.833,202.807,7.833L202.807,7.833z"/>
			</g>
		</g>
		<g>
			<path fill="#FFFFFF" d="M193.285,37.121h1.369v4.916h2.412v1.152h-3.781V37.121z"/>
			<path fill="#FFFFFF" d="M202.098,40.938c0,1.611-1.143,2.35-2.322,2.35c-1.287,0-2.277-0.846-2.277-2.269
				c0-1.432,0.936-2.341,2.358-2.341C201.197,38.678,202.098,39.605,202.098,40.938z M198.911,40.983c0,0.756,0.315,1.323,0.9,1.323
				c0.54,0,0.873-0.531,0.873-1.333c0-0.648-0.252-1.314-0.873-1.314C199.163,39.66,198.911,40.334,198.911,40.983z"/>
			<path fill="#FFFFFF" d="M205.166,40.371v0.909h-2.358v-0.909H205.166z"/>
			<path fill="#FFFFFF" d="M206.039,37.121h3.699v1.125h-2.331v1.386h2.179v1.116h-2.179v2.44h-1.368V37.121z"/>
			<path fill="#FFFFFF" d="M211.961,37.562c0,0.378-0.278,0.684-0.738,0.684c-0.432,0-0.711-0.306-0.711-0.684
				c0-0.387,0.289-0.685,0.729-0.685C211.683,36.877,211.953,37.175,211.961,37.562z M210.549,43.188v-4.402h1.367v4.402H210.549z"
				/>
			<path fill="#FFFFFF" d="M187.251,48.01c0.504-0.081,1.161-0.135,1.846-0.135c1.161,0,1.917,0.216,2.493,0.648
				c0.631,0.468,1.027,1.215,1.027,2.287c0,1.161-0.424,1.962-1,2.458c-0.639,0.531-1.621,0.783-2.809,0.783
				c-0.711,0-1.225-0.045-1.558-0.09V48.01z M188.619,52.953c0.117,0.027,0.315,0.027,0.478,0.027
				c1.251,0.009,2.07-0.675,2.07-2.125c0-1.26-0.738-1.927-1.927-1.927c-0.297,0-0.504,0.027-0.621,0.054V52.953z"/>
			<path fill="#FFFFFF" d="M194.523,52.224c0.036,0.567,0.604,0.837,1.242,0.837c0.469,0,0.846-0.063,1.215-0.189l0.181,0.927
				c-0.45,0.189-0.999,0.279-1.593,0.279c-1.495,0-2.351-0.864-2.351-2.242c0-1.116,0.693-2.35,2.224-2.35
				c1.423,0,1.963,1.107,1.963,2.197c0,0.234-0.027,0.441-0.045,0.54H194.523z M196.135,51.288c0-0.333-0.145-0.892-0.773-0.892
				c-0.576,0-0.811,0.531-0.848,0.892H196.135z"/>
			<path fill="#FFFFFF" d="M198.213,52.8c0.252,0.153,0.774,0.324,1.18,0.324c0.414,0,0.585-0.135,0.585-0.36
				c0-0.234-0.136-0.342-0.64-0.513c-0.918-0.306-1.27-0.801-1.26-1.324c0-0.828,0.702-1.449,1.791-1.449
				c0.514,0,0.964,0.126,1.234,0.261l-0.234,0.945c-0.198-0.108-0.586-0.252-0.955-0.252c-0.332,0-0.521,0.135-0.521,0.351
				c0,0.216,0.171,0.324,0.711,0.513c0.838,0.288,1.18,0.72,1.188,1.359c0,0.828-0.64,1.432-1.899,1.432
				c-0.576,0-1.09-0.135-1.423-0.315L198.213,52.8z"/>
			<path fill="#FFFFFF" d="M203.541,48.362c0,0.378-0.279,0.684-0.738,0.684c-0.432,0-0.711-0.306-0.711-0.684
				c0-0.387,0.288-0.685,0.729-0.685C203.262,47.677,203.532,47.975,203.541,48.362z M202.128,53.988v-4.402h1.368v4.402H202.128z"
				/>
			<path fill="#FFFFFF" d="M208.762,53.349c0,0.846-0.171,1.54-0.676,1.98c-0.477,0.414-1.134,0.54-1.781,0.54
				c-0.586,0-1.189-0.117-1.585-0.333l0.271-1.044c0.279,0.162,0.756,0.333,1.277,0.333c0.648,0,1.145-0.342,1.145-1.162v-0.279
				h-0.019c-0.261,0.36-0.685,0.567-1.188,0.567c-1.09,0-1.863-0.882-1.863-2.143c0-1.422,0.909-2.323,1.998-2.323
				c0.604,0,0.981,0.261,1.207,0.63h0.018l0.045-0.531h1.188c-0.019,0.288-0.036,0.657-0.036,1.314V53.349z M207.394,51.377
				c0-0.081-0.009-0.171-0.027-0.252c-0.099-0.36-0.36-0.603-0.737-0.603c-0.505,0-0.9,0.45-0.9,1.251
				c0,0.657,0.324,1.17,0.891,1.17c0.36,0,0.639-0.234,0.729-0.549c0.036-0.108,0.045-0.252,0.045-0.369V51.377z"/>
			<path fill="#FFFFFF" d="M209.859,50.99c0-0.549-0.019-1.008-0.037-1.404h1.189l0.062,0.612h0.027
				c0.18-0.288,0.621-0.711,1.359-0.711c0.9,0,1.575,0.604,1.575,1.9v2.602h-1.368v-2.44c0-0.567-0.198-0.954-0.693-0.954
				c-0.379,0-0.604,0.261-0.703,0.513c-0.035,0.09-0.045,0.216-0.045,0.342v2.539h-1.367V50.99z"/>
			<path fill="#FFFFFF" d="M215.123,52.8c0.252,0.153,0.775,0.324,1.18,0.324c0.414,0,0.586-0.135,0.586-0.36
				c0-0.234-0.136-0.342-0.64-0.513c-0.919-0.306-1.27-0.801-1.261-1.324c0-0.828,0.703-1.449,1.792-1.449
				c0.513,0,0.964,0.126,1.233,0.261l-0.234,0.945c-0.197-0.108-0.585-0.252-0.954-0.252c-0.333,0-0.522,0.135-0.522,0.351
				c0,0.216,0.172,0.324,0.711,0.513c0.838,0.288,1.18,0.72,1.189,1.359c0,0.828-0.64,1.432-1.9,1.432
				c-0.576,0-1.089-0.135-1.422-0.315L215.123,52.8z"/>
		</g>
	</g>
	<g>
		<g>
			<rect x="89.192" y="44.917" fill="#414042" width="62.661" height="1.5"/>
		</g>
		<g>
			<g>
				<polygon fill="#414042" points="147.641,51.222 150.001,45.667 147.641,40.112 160.809,45.667 				"/>
			</g>
		</g>
	</g>
	<g>
		<g>
			<g>
				<path fill="#EF4237" d="M203.666,227.428c-20.31,0-36.832-16.523-36.832-36.833c0-20.311,16.522-36.834,36.832-36.834
					c20.311,0,36.834,16.523,36.834,36.834C240.5,210.904,223.977,227.428,203.666,227.428z"/>
				<path fill="#FFFFFF" d="M203.666,154.761c19.791,0,35.834,16.043,35.834,35.834c0,19.79-16.043,35.833-35.834,35.833
					c-19.789,0-35.832-16.043-35.832-35.833C167.834,170.804,183.877,154.761,203.666,154.761 M203.666,152.761
					c-20.86,0-37.832,16.973-37.832,37.834s16.972,37.833,37.832,37.833c20.861,0,37.834-16.972,37.834-37.833
					S224.527,152.761,203.666,152.761L203.666,152.761z"/>
			</g>
		</g>
		<g>
			<path fill="#FFFFFF" d="M196.346,182.049v3.483c0,1.054,0.405,1.585,1.099,1.585c0.72,0,1.116-0.504,1.116-1.585v-3.483h1.369
				v3.402c0,1.873-0.945,2.764-2.53,2.764c-1.53,0-2.422-0.855-2.422-2.781v-3.385H196.346z"/>
			<path fill="#FFFFFF" d="M200.944,186.928c0.253,0.153,0.774,0.324,1.18,0.324c0.414,0,0.585-0.135,0.585-0.359
				c0-0.234-0.135-0.343-0.639-0.514c-0.919-0.307-1.27-0.801-1.261-1.324c0-0.828,0.702-1.449,1.792-1.449
				c0.513,0,0.963,0.127,1.232,0.262l-0.234,0.945c-0.197-0.108-0.584-0.252-0.953-0.252c-0.334,0-0.522,0.135-0.522,0.351
				s0.171,0.324,0.711,0.513c0.837,0.289,1.179,0.721,1.188,1.359c0,0.828-0.639,1.432-1.899,1.432
				c-0.576,0-1.089-0.135-1.423-0.314L200.944,186.928z"/>
			<path fill="#FFFFFF" d="M205.912,186.352c0.037,0.567,0.604,0.838,1.242,0.838c0.469,0,0.847-0.063,1.216-0.189l0.181,0.928
				c-0.451,0.188-1,0.278-1.594,0.278c-1.494,0-2.35-0.864-2.35-2.241c0-1.117,0.693-2.35,2.223-2.35
				c1.424,0,1.963,1.107,1.963,2.196c0,0.233-0.026,0.44-0.045,0.54H205.912z M207.523,185.416c0-0.334-0.144-0.893-0.773-0.893
				c-0.576,0-0.811,0.531-0.847,0.893H207.523z"/>
			<path fill="#FFFFFF" d="M209.611,185.164c0-0.648-0.01-1.072-0.036-1.45h1.171l0.053,0.81h0.037
				c0.225-0.647,0.756-0.918,1.188-0.918c0.127,0,0.189,0.01,0.289,0.027v1.287c-0.108-0.018-0.217-0.035-0.369-0.035
				c-0.504,0-0.847,0.27-0.938,0.693c-0.018,0.09-0.026,0.197-0.026,0.305v2.233h-1.368V185.164z"/>
			<path fill="#FFFFFF" d="M190.621,194h-1.638v-1.152h4.663V194h-1.656v4.916h-1.369V194z"/>
			<path fill="#FFFFFF" d="M194.654,197.151c0.035,0.567,0.603,0.837,1.242,0.837c0.468,0,0.846-0.062,1.215-0.188l0.18,0.927
				c-0.449,0.189-0.998,0.279-1.593,0.279c-1.495,0-2.351-0.864-2.351-2.242c0-1.115,0.693-2.35,2.225-2.35
				c1.422,0,1.963,1.107,1.963,2.197c0,0.234-0.027,0.441-0.045,0.54H194.654z M196.266,196.215c0-0.332-0.145-0.891-0.774-0.891
				c-0.576,0-0.811,0.531-0.847,0.891H196.266z"/>
			<path fill="#FFFFFF" d="M198.344,197.728c0.252,0.153,0.773,0.324,1.18,0.324c0.414,0,0.584-0.136,0.584-0.36
				c0-0.234-0.135-0.342-0.639-0.513c-0.918-0.306-1.27-0.802-1.26-1.323c0-0.828,0.701-1.449,1.791-1.449
				c0.514,0,0.963,0.125,1.233,0.26l-0.234,0.945c-0.198-0.107-0.585-0.252-0.954-0.252c-0.333,0-0.521,0.136-0.521,0.352
				c0,0.217,0.17,0.324,0.711,0.514c0.837,0.287,1.179,0.72,1.188,1.359c0,0.828-0.639,1.432-1.898,1.432
				c-0.576,0-1.09-0.136-1.424-0.316L198.344,197.728z"/>
			<path fill="#FFFFFF" d="M203.789,193.325v1.188h0.98v1.008h-0.98v1.594c0,0.531,0.135,0.774,0.539,0.774
				c0.189,0,0.279-0.009,0.406-0.036l0.008,1.035c-0.17,0.063-0.504,0.117-0.881,0.117c-0.441,0-0.811-0.152-1.036-0.378
				c-0.252-0.261-0.378-0.685-0.378-1.306v-1.801h-0.586v-1.008h0.586v-0.819L203.789,193.325z"/>
			<path fill="#FFFFFF" d="M206.975,193.289c0,0.379-0.279,0.685-0.738,0.685c-0.432,0-0.711-0.306-0.711-0.685
				c0-0.387,0.287-0.684,0.729-0.684S206.965,192.902,206.975,193.289z M205.561,198.916v-4.402h1.369v4.402H205.561z"/>
			<path fill="#FFFFFF" d="M208.027,195.918c0-0.549-0.019-1.008-0.037-1.404h1.189l0.062,0.612h0.027
				c0.18-0.288,0.621-0.712,1.359-0.712c0.9,0,1.575,0.604,1.575,1.9v2.602h-1.368v-2.439c0-0.567-0.198-0.955-0.693-0.955
				c-0.379,0-0.604,0.262-0.703,0.514c-0.035,0.09-0.045,0.217-0.045,0.342v2.539h-1.367V195.918z"/>
			<path fill="#FFFFFF" d="M217.469,198.277c0,0.846-0.171,1.539-0.676,1.98c-0.477,0.414-1.134,0.539-1.781,0.539
				c-0.586,0-1.189-0.116-1.585-0.332l0.271-1.045c0.279,0.162,0.756,0.334,1.277,0.334c0.648,0,1.145-0.343,1.145-1.162v-0.279
				h-0.019c-0.261,0.36-0.685,0.567-1.188,0.567c-1.09,0-1.863-0.882-1.863-2.143c0-1.423,0.909-2.323,1.998-2.323
				c0.604,0,0.981,0.262,1.207,0.631h0.018l0.045-0.531h1.188c-0.019,0.288-0.036,0.657-0.036,1.314V198.277z M216.101,196.305
				c0-0.08-0.009-0.17-0.027-0.252c-0.099-0.359-0.36-0.603-0.737-0.603c-0.505,0-0.9,0.45-0.9,1.251c0,0.657,0.324,1.17,0.891,1.17
				c0.36,0,0.639-0.233,0.729-0.549c0.036-0.107,0.045-0.252,0.045-0.369V196.305z"/>
		</g>
	</g>
	<g>
		<g>
			<g>
				<path fill="#EF4237" d="M45.474,226.428c-20.31,0-36.833-16.523-36.833-36.833c0-20.311,16.523-36.834,36.833-36.834
					s36.833,16.523,36.833,36.834C82.307,209.904,65.783,226.428,45.474,226.428z"/>
				<path fill="#FFFFFF" d="M45.474,153.761c19.79,0,35.833,16.043,35.833,35.834c0,19.79-16.043,35.833-35.833,35.833
					S9.641,209.385,9.641,189.595C9.641,169.804,25.684,153.761,45.474,153.761 M45.474,151.761
					c-20.861,0-37.833,16.973-37.833,37.834s16.972,37.833,37.833,37.833s37.833-16.972,37.833-37.833
					S66.335,151.761,45.474,151.761L45.474,151.761z"/>
			</g>
		</g>
		<g>
			<path fill="#FFFFFF" d="M37.901,181.049v2.331h2.26v-2.331h1.368v6.067h-1.368v-2.538h-2.26v2.538h-1.369v-6.067H37.901z"/>
			<path fill="#FFFFFF" d="M44.12,181.49c0,0.377-0.279,0.684-0.738,0.684c-0.432,0-0.711-0.307-0.711-0.684
				c0-0.388,0.288-0.686,0.729-0.686C43.841,180.805,44.111,181.103,44.12,181.49z M42.707,187.116v-4.402h1.368v4.402H42.707z"/>
			<path fill="#FFFFFF" d="M47.252,184.299v0.908h-2.359v-0.908H47.252z"/>
			<path fill="#FFFFFF" d="M48.125,181.049h3.7v1.125h-2.332v1.387h2.179v1.115h-2.179v2.44h-1.369V181.049z"/>
			<path fill="#FFFFFF" d="M54.047,181.49c0,0.377-0.279,0.684-0.738,0.684c-0.433,0-0.711-0.307-0.711-0.684
				c0-0.388,0.288-0.686,0.729-0.686C53.769,180.805,54.039,181.103,54.047,181.49z M52.634,187.116v-4.402h1.368v4.402H52.634z"/>
			<path fill="#FFFFFF" d="M29.917,191.938c0.504-0.08,1.161-0.135,1.846-0.135c1.161,0,1.917,0.217,2.494,0.648
				c0.63,0.469,1.026,1.215,1.026,2.287c0,1.161-0.423,1.963-1,2.457c-0.639,0.531-1.621,0.783-2.809,0.783
				c-0.711,0-1.225-0.045-1.558-0.09V191.938z M31.286,196.881c0.117,0.027,0.315,0.027,0.478,0.027
				c1.251,0.008,2.07-0.676,2.07-2.125c0-1.26-0.738-1.927-1.926-1.927c-0.297,0-0.504,0.026-0.622,0.054V196.881z"/>
			<path fill="#FFFFFF" d="M37.19,196.151c0.036,0.567,0.603,0.837,1.242,0.837c0.468,0,0.846-0.062,1.215-0.188l0.18,0.927
				c-0.45,0.189-1,0.279-1.593,0.279c-1.495,0-2.35-0.864-2.35-2.242c0-1.115,0.693-2.35,2.224-2.35
				c1.422,0,1.962,1.107,1.962,2.197c0,0.234-0.027,0.441-0.045,0.54H37.19z M38.801,195.215c0-0.332-0.144-0.891-0.774-0.891
				c-0.576,0-0.811,0.531-0.847,0.891H38.801z"/>
			<path fill="#FFFFFF" d="M40.879,196.728c0.252,0.153,0.774,0.324,1.18,0.324c0.414,0,0.585-0.136,0.585-0.36
				c0-0.234-0.135-0.342-0.639-0.513c-0.918-0.306-1.27-0.802-1.26-1.323c0-0.828,0.702-1.449,1.792-1.449
				c0.513,0,0.963,0.125,1.233,0.26l-0.234,0.945c-0.198-0.107-0.585-0.252-0.954-0.252c-0.333,0-0.522,0.136-0.522,0.352
				c0,0.217,0.171,0.324,0.711,0.514c0.837,0.287,1.179,0.72,1.188,1.359c0,0.828-0.639,1.432-1.899,1.432
				c-0.576,0-1.089-0.136-1.423-0.316L40.879,196.728z"/>
			<path fill="#FFFFFF" d="M46.208,192.289c0,0.379-0.279,0.685-0.738,0.685c-0.433,0-0.711-0.306-0.711-0.685
				c0-0.387,0.288-0.684,0.729-0.684C45.929,191.605,46.199,191.902,46.208,192.289z M44.794,197.916v-4.402h1.368v4.402H44.794z"/>
			<path fill="#FFFFFF" d="M51.428,197.277c0,0.846-0.171,1.539-0.675,1.98c-0.477,0.414-1.134,0.539-1.782,0.539
				c-0.585,0-1.188-0.116-1.584-0.332l0.27-1.045c0.279,0.162,0.756,0.334,1.278,0.334c0.648,0,1.144-0.343,1.144-1.162v-0.279
				H50.06c-0.261,0.36-0.684,0.567-1.188,0.567c-1.089,0-1.864-0.882-1.864-2.143c0-1.423,0.91-2.323,1.999-2.323
				c0.603,0,0.981,0.262,1.206,0.631h0.018l0.045-0.531h1.188c-0.018,0.288-0.036,0.657-0.036,1.314V197.277z M50.06,195.305
				c0-0.08-0.009-0.17-0.027-0.252c-0.099-0.359-0.36-0.603-0.738-0.603c-0.504,0-0.9,0.45-0.9,1.251c0,0.657,0.324,1.17,0.891,1.17
				c0.36,0,0.639-0.233,0.729-0.549c0.036-0.107,0.045-0.252,0.045-0.369V195.305z"/>
			<path fill="#FFFFFF" d="M52.525,194.918c0-0.549-0.018-1.008-0.036-1.404h1.188l0.063,0.612h0.027
				c0.18-0.288,0.621-0.712,1.359-0.712c0.9,0,1.576,0.604,1.576,1.9v2.602h-1.369v-2.439c0-0.567-0.198-0.955-0.693-0.955
				c-0.378,0-0.603,0.262-0.702,0.514c-0.036,0.09-0.045,0.217-0.045,0.342v2.539h-1.368V194.918z"/>
			<path fill="#FFFFFF" d="M57.79,196.728c0.252,0.153,0.774,0.324,1.18,0.324c0.414,0,0.585-0.136,0.585-0.36
				c0-0.234-0.135-0.342-0.639-0.513c-0.918-0.306-1.27-0.802-1.26-1.323c0-0.828,0.702-1.449,1.792-1.449
				c0.513,0,0.963,0.125,1.233,0.26l-0.234,0.945c-0.198-0.107-0.585-0.252-0.954-0.252c-0.333,0-0.522,0.136-0.522,0.352
				c0,0.217,0.171,0.324,0.711,0.514c0.837,0.287,1.179,0.72,1.188,1.359c0,0.828-0.639,1.432-1.899,1.432
				c-0.576,0-1.089-0.136-1.423-0.316L57.79,196.728z"/>
		</g>
	</g>
	<g>
		<g>
			<g>
				<path fill="#414042" d="M121.756,214.238c-26.333,0-32.033-13.957-32.263-14.551l1.399-0.541l-0.7,0.271l0.699-0.272
					c0.053,0.136,5.636,13.594,30.865,13.594c14.532,0,24.315-4.426,29.964-8.14l0.824,1.254
					C146.725,209.678,136.659,214.238,121.756,214.238z"/>
			</g>
			<g>
				<g>
					<polygon fill="#414042" points="152.241,212.034 150.567,206.235 145.232,203.414 158.953,199.417 					"/>
				</g>
			</g>
		</g>
		<g>
			<g>
				<path fill="#414042" d="M158.254,185.688c-0.053-0.136-5.635-13.594-30.864-13.594c-14.532,0-24.315,4.426-29.963,8.14
					l-0.824-1.254c5.819-3.825,15.885-8.386,30.788-8.386c26.333,0,32.033,13.957,32.263,14.551l-1.398,0.541l0.699-0.271
					L158.254,185.688z"/>
			</g>
			<g>
				<polygon fill="#414042" points="96.905,172.8 98.578,178.598 103.913,181.419 90.192,185.416 				"/>
			</g>
		</g>
	</g>
	<g>
		<g>
			<g>
				<path fill="#EF4237" d="M44.833,371.167C24.523,371.167,8,354.644,8,334.334C8,314.023,24.523,297.5,44.833,297.5
					s36.833,16.523,36.833,36.834C81.666,354.644,65.143,371.167,44.833,371.167z"/>
				<path fill="#FFFFFF" d="M44.833,298.5c19.79,0,35.833,16.043,35.833,35.834c0,19.79-16.043,35.833-35.833,35.833
					S9,354.124,9,334.334C9,314.543,25.043,298.5,44.833,298.5 M44.833,296.5C23.972,296.5,7,313.473,7,334.334
					s16.972,37.833,37.833,37.833s37.833-16.972,37.833-37.833S65.694,296.5,44.833,296.5L44.833,296.5z"/>
			</g>
		</g>
		<g>
			<path fill="#FFFFFF" d="M17.105,320.869c0.441-0.072,1.089-0.127,1.828-0.127c0.9,0,1.53,0.135,1.962,0.478
				c0.369,0.288,0.567,0.72,0.567,1.278c0,0.766-0.549,1.297-1.071,1.485v0.027c0.423,0.171,0.657,0.567,0.81,1.125
				c0.189,0.693,0.369,1.485,0.486,1.72h-1.405c-0.09-0.18-0.243-0.666-0.414-1.414c-0.171-0.765-0.432-0.963-0.999-0.972h-0.405
				v2.386h-1.359V320.869z M18.465,323.479h0.54c0.684,0,1.089-0.343,1.089-0.874c0-0.549-0.378-0.836-1.008-0.836
				c-0.333,0-0.522,0.018-0.621,0.045V323.479z"/>
			<path fill="#FFFFFF" d="M23.451,325.091c0.036,0.567,0.603,0.837,1.242,0.837c0.468,0,0.846-0.062,1.215-0.188l0.18,0.927
				c-0.45,0.189-0.999,0.279-1.593,0.279c-1.495,0-2.35-0.864-2.35-2.242c0-1.115,0.693-2.35,2.224-2.35
				c1.423,0,1.963,1.107,1.963,2.197c0,0.234-0.027,0.441-0.045,0.54H23.451z M25.062,324.154c0-0.332-0.144-0.891-0.774-0.891
				c-0.576,0-0.811,0.531-0.847,0.891H25.062z"/>
			<path fill="#FFFFFF" d="M30.048,326.297H30.03c-0.279,0.424-0.72,0.658-1.314,0.658c-0.955,0-1.819-0.847-1.819-2.242
				c0-1.584,1-2.367,1.945-2.367c0.567,0,0.981,0.207,1.233,0.621l0.018,0.008l0.036-0.521h1.314
				c-0.009,0.432-0.027,0.864-0.027,1.323v4.862h-1.368V326.297z M30.048,324.299c0-0.081-0.009-0.153-0.027-0.225
				c-0.072-0.352-0.369-0.658-0.792-0.658c-0.621,0-0.945,0.531-0.945,1.242c0,0.73,0.36,1.216,0.936,1.216
				c0.387,0,0.702-0.261,0.792-0.621c0.027-0.09,0.036-0.207,0.036-0.297V324.299z"/>
			<path fill="#FFFFFF" d="M36.654,325.441c0,0.576,0.018,1.045,0.036,1.414h-1.188l-0.063-0.621h-0.027
				c-0.171,0.27-0.585,0.721-1.377,0.721c-0.9,0-1.548-0.559-1.548-1.918v-2.584h1.368v2.367c0,0.64,0.207,1.027,0.693,1.027
				c0.378,0,0.603-0.262,0.684-0.478c0.036-0.081,0.054-0.181,0.054-0.298v-2.619h1.368V325.441z"/>
			<path fill="#FFFFFF" d="M39.165,321.229c0,0.379-0.279,0.685-0.738,0.685c-0.432,0-0.711-0.306-0.711-0.685
				c0-0.387,0.288-0.684,0.729-0.684C38.886,320.545,39.156,320.842,39.165,321.229z M37.751,326.855v-4.402h1.368v4.402H37.751z"/>
			<path fill="#FFFFFF" d="M40.217,323.902c0-0.648-0.009-1.071-0.036-1.449h1.17l0.054,0.811h0.036
				c0.225-0.648,0.756-0.918,1.188-0.918c0.126,0,0.189,0.008,0.288,0.026v1.288c-0.108-0.019-0.216-0.037-0.369-0.037
				c-0.504,0-0.846,0.271-0.936,0.693c-0.018,0.09-0.027,0.198-0.027,0.307v2.232h-1.368V323.902z"/>
			<path fill="#FFFFFF" d="M44.619,325.091c0.036,0.567,0.603,0.837,1.242,0.837c0.468,0,0.846-0.062,1.215-0.188l0.18,0.927
				c-0.45,0.189-0.999,0.279-1.593,0.279c-1.495,0-2.35-0.864-2.35-2.242c0-1.115,0.693-2.35,2.224-2.35
				c1.423,0,1.963,1.107,1.963,2.197c0,0.234-0.027,0.441-0.045,0.54H44.619z M46.23,324.154c0-0.332-0.144-0.891-0.774-0.891
				c-0.576,0-0.811,0.531-0.847,0.891H46.23z"/>
			<path fill="#FFFFFF" d="M48.317,323.857c0-0.549-0.018-1.008-0.036-1.404h1.161l0.054,0.594h0.027
				c0.189-0.287,0.585-0.701,1.333-0.701c0.576,0,1.018,0.297,1.207,0.756h0.018c0.171-0.234,0.36-0.414,0.576-0.541
				c0.243-0.135,0.513-0.215,0.837-0.215c0.846,0,1.485,0.594,1.485,1.917v2.593h-1.332v-2.395c0-0.639-0.207-1.008-0.648-1.008
				c-0.324,0-0.54,0.215-0.639,0.477c-0.027,0.1-0.045,0.234-0.045,0.352v2.574h-1.333v-2.476c0-0.55-0.198-0.927-0.639-0.927
				c-0.351,0-0.558,0.27-0.639,0.485c-0.045,0.108-0.054,0.234-0.054,0.351v2.566h-1.332V323.857z"/>
			<path fill="#FFFFFF" d="M57.11,325.091c0.036,0.567,0.603,0.837,1.242,0.837c0.468,0,0.846-0.062,1.215-0.188l0.18,0.927
				c-0.45,0.189-1,0.279-1.593,0.279c-1.495,0-2.35-0.864-2.35-2.242c0-1.115,0.693-2.35,2.224-2.35
				c1.422,0,1.962,1.107,1.962,2.197c0,0.234-0.027,0.441-0.045,0.54H57.11z M58.722,324.154c0-0.332-0.144-0.891-0.774-0.891
				c-0.576,0-0.811,0.531-0.847,0.891H58.722z"/>
			<path fill="#FFFFFF" d="M60.809,323.857c0-0.549-0.018-1.008-0.036-1.404h1.188l0.063,0.612h0.027
				c0.18-0.288,0.621-0.712,1.359-0.712c0.9,0,1.576,0.604,1.576,1.9v2.602h-1.369v-2.439c0-0.567-0.198-0.955-0.693-0.955
				c-0.378,0-0.603,0.262-0.702,0.514c-0.036,0.09-0.045,0.217-0.045,0.342v2.539h-1.368V323.857z"/>
			<path fill="#FFFFFF" d="M67.559,321.265v1.188h0.981v1.008h-0.981v1.594c0,0.531,0.135,0.774,0.54,0.774
				c0.189,0,0.279-0.009,0.405-0.036l0.009,1.035c-0.171,0.063-0.504,0.117-0.882,0.117c-0.441,0-0.811-0.152-1.036-0.378
				c-0.252-0.261-0.378-0.685-0.378-1.306v-1.801h-0.585v-1.008h0.585v-0.819L67.559,321.265z"/>
			<path fill="#FFFFFF" d="M69.322,325.667c0.252,0.153,0.774,0.324,1.18,0.324c0.414,0,0.585-0.136,0.585-0.36
				c0-0.234-0.135-0.342-0.639-0.513c-0.918-0.306-1.27-0.802-1.26-1.323c0-0.828,0.702-1.449,1.792-1.449
				c0.513,0,0.963,0.125,1.233,0.26l-0.234,0.945c-0.198-0.107-0.585-0.252-0.954-0.252c-0.333,0-0.522,0.136-0.522,0.352
				c0,0.217,0.171,0.324,0.711,0.514c0.837,0.287,1.179,0.72,1.188,1.359c0,0.828-0.639,1.432-1.899,1.432
				c-0.576,0-1.089-0.136-1.423-0.316L69.322,325.667z"/>
			<path fill="#FFFFFF" d="M46.005,337.655c-0.126-0.136-0.252-0.271-0.396-0.433c-0.396,0.307-0.945,0.531-1.666,0.531
				c-1.467,0-2.115-0.863-2.115-1.719c0-0.802,0.459-1.378,1.152-1.747v-0.026c-0.261-0.297-0.468-0.738-0.468-1.18
				c0-0.766,0.612-1.603,1.836-1.603c0.937,0,1.639,0.55,1.639,1.423c0,0.611-0.36,1.143-1.198,1.557l-0.009,0.036
				c0.351,0.396,0.72,0.837,1.018,1.144c0.243-0.387,0.432-0.945,0.513-1.485h1.225c-0.162,0.927-0.468,1.71-1.008,2.305
				c0.342,0.396,0.693,0.792,1.071,1.197H46.005z M44.97,336.458c-0.369-0.369-0.864-0.937-1.368-1.495
				c-0.252,0.189-0.477,0.451-0.477,0.847c0,0.522,0.387,0.954,1.026,0.954C44.493,336.764,44.79,336.629,44.97,336.458z
				 M44.286,332.334c-0.351,0-0.54,0.307-0.54,0.622c0,0.306,0.135,0.576,0.423,0.873c0.441-0.297,0.657-0.54,0.657-0.892
				c0-0.287-0.171-0.604-0.522-0.604H44.286z"/>
			<path fill="#FFFFFF" d="M17.987,342.479c0.504-0.082,1.161-0.136,1.846-0.136c1.161,0,1.917,0.216,2.494,0.647
				c0.63,0.469,1.026,1.217,1.026,2.287c0,1.162-0.423,1.963-1,2.458c-0.639,0.531-1.621,0.783-2.809,0.783
				c-0.711,0-1.225-0.045-1.558-0.09V342.479z M19.355,347.42c0.117,0.027,0.315,0.027,0.478,0.027
				c1.251,0.009,2.07-0.676,2.07-2.125c0-1.26-0.738-1.926-1.926-1.926c-0.297,0-0.504,0.026-0.622,0.054V347.42z"/>
			<path fill="#FFFFFF" d="M25.259,346.691c0.036,0.566,0.603,0.837,1.242,0.837c0.468,0,0.846-0.063,1.215-0.188l0.18,0.927
				c-0.45,0.188-0.999,0.278-1.593,0.278c-1.495,0-2.35-0.863-2.35-2.241c0-1.116,0.693-2.35,2.224-2.35
				c1.423,0,1.963,1.107,1.963,2.196c0,0.234-0.027,0.441-0.045,0.541H25.259z M26.871,345.755c0-0.333-0.144-0.892-0.774-0.892
				c-0.576,0-0.811,0.531-0.847,0.892H26.871z"/>
			<path fill="#FFFFFF" d="M29.921,344.053l0.594,2.044c0.108,0.378,0.18,0.72,0.252,1.071h0.027
				c0.072-0.359,0.144-0.693,0.243-1.071l0.567-2.044h1.44l-1.639,4.402h-1.368l-1.603-4.402H29.921z"/>
			<path fill="#FFFFFF" d="M34.592,346.691c0.036,0.566,0.603,0.837,1.242,0.837c0.468,0,0.846-0.063,1.215-0.188l0.18,0.927
				c-0.45,0.188-0.999,0.278-1.593,0.278c-1.495,0-2.35-0.863-2.35-2.241c0-1.116,0.693-2.35,2.224-2.35
				c1.423,0,1.963,1.107,1.963,2.196c0,0.234-0.027,0.441-0.045,0.541H34.592z M36.204,345.755c0-0.333-0.144-0.892-0.774-0.892
				c-0.576,0-0.811,0.531-0.847,0.892H36.204z"/>
			<path fill="#FFFFFF" d="M38.291,342.063h1.368v6.392h-1.368V342.063z"/>
			<path fill="#FFFFFF" d="M45.114,346.205c0,1.611-1.144,2.35-2.323,2.35c-1.287,0-2.278-0.846-2.278-2.269
				c0-1.432,0.937-2.341,2.359-2.341C44.214,343.945,45.114,344.873,45.114,346.205z M41.927,346.25c0,0.756,0.315,1.323,0.9,1.323
				c0.54,0,0.873-0.531,0.873-1.333c0-0.647-0.252-1.314-0.873-1.314C42.179,344.926,41.927,345.602,41.927,346.25z"/>
			<path fill="#FFFFFF" d="M45.959,345.529c0-0.576-0.018-1.062-0.036-1.477h1.188l0.063,0.613h0.018
				c0.324-0.459,0.828-0.712,1.467-0.712c0.963,0,1.828,0.837,1.828,2.241c0,1.604-1.018,2.359-1.999,2.359
				c-0.531,0-0.945-0.217-1.144-0.504h-0.018v2.188h-1.368V345.529z M47.327,346.564c0,0.108,0.009,0.199,0.027,0.289
				c0.09,0.369,0.405,0.648,0.801,0.648c0.594,0,0.945-0.496,0.945-1.243c0-0.702-0.315-1.233-0.927-1.233
				c-0.387,0-0.729,0.288-0.819,0.693c-0.018,0.072-0.027,0.162-0.027,0.243V346.564z"/>
			<path fill="#FFFFFF" d="M51.341,345.457c0-0.549-0.018-1.008-0.036-1.404h1.161l0.054,0.595h0.027
				c0.189-0.288,0.585-0.702,1.333-0.702c0.576,0,1.018,0.297,1.207,0.756h0.018c0.171-0.234,0.36-0.414,0.576-0.54
				c0.243-0.135,0.513-0.216,0.837-0.216c0.846,0,1.485,0.594,1.485,1.918v2.592H56.67v-2.395c0-0.639-0.207-1.008-0.648-1.008
				c-0.324,0-0.54,0.216-0.639,0.477c-0.027,0.1-0.045,0.234-0.045,0.352v2.574h-1.333v-2.475c0-0.55-0.198-0.928-0.639-0.928
				c-0.351,0-0.558,0.27-0.639,0.486c-0.045,0.107-0.054,0.234-0.054,0.351v2.565h-1.332V345.457z"/>
			<path fill="#FFFFFF" d="M60.134,346.691c0.036,0.566,0.603,0.837,1.242,0.837c0.468,0,0.846-0.063,1.215-0.188l0.18,0.927
				c-0.45,0.188-1,0.278-1.593,0.278c-1.495,0-2.35-0.863-2.35-2.241c0-1.116,0.693-2.35,2.224-2.35
				c1.422,0,1.962,1.107,1.962,2.196c0,0.234-0.027,0.441-0.045,0.541H60.134z M61.745,345.755c0-0.333-0.144-0.892-0.774-0.892
				c-0.576,0-0.811,0.531-0.847,0.892H61.745z"/>
			<path fill="#FFFFFF" d="M63.833,345.457c0-0.549-0.018-1.008-0.036-1.404h1.188l0.063,0.613h0.027
				c0.18-0.289,0.621-0.712,1.359-0.712c0.9,0,1.576,0.604,1.576,1.899v2.602h-1.369v-2.439c0-0.566-0.198-0.954-0.693-0.954
				c-0.378,0-0.603,0.261-0.702,0.513c-0.036,0.09-0.045,0.217-0.045,0.343v2.538h-1.368V345.457z"/>
			<path fill="#FFFFFF" d="M70.583,342.865v1.188h0.981v1.009h-0.981v1.593c0,0.531,0.135,0.775,0.54,0.775
				c0.189,0,0.279-0.01,0.405-0.037l0.009,1.036c-0.171,0.063-0.504,0.116-0.882,0.116c-0.441,0-0.811-0.152-1.036-0.377
				c-0.252-0.262-0.378-0.685-0.378-1.306v-1.801h-0.585v-1.009h0.585v-0.818L70.583,342.865z"/>
		</g>
	</g>
	<g>
		<g>
			<g>
				<path fill="#EF4237" d="M204.168,371.167c-20.311,0-36.834-16.523-36.834-36.833c0-20.311,16.523-36.834,36.834-36.834
					c20.31,0,36.832,16.523,36.832,36.834C241,354.644,224.478,371.167,204.168,371.167z"/>
				<path fill="#FFFFFF" d="M204.168,298.5c19.789,0,35.832,16.043,35.832,35.834c0,19.79-16.043,35.833-35.832,35.833
					c-19.791,0-35.834-16.043-35.834-35.833C168.334,314.543,184.377,298.5,204.168,298.5 M204.168,296.5
					c-20.861,0-37.834,16.973-37.834,37.834s16.973,37.833,37.834,37.833c20.86,0,37.832-16.972,37.832-37.833
					S225.028,296.5,204.168,296.5L204.168,296.5z"/>
			</g>
		</g>
		<g>
			<path fill="#FFFFFF" d="M202.706,327.9c-0.864-0.252-1.585-0.523-2.403-0.855c-0.135-0.055-0.279-0.082-0.414-0.09
				c-1.378-0.091-2.656-1.1-2.656-3.088c0-1.828,1.152-3.188,2.971-3.188c1.846,0,2.863,1.404,2.863,3.07
				c0,1.377-0.639,2.35-1.432,2.709v0.037c0.459,0.135,0.981,0.252,1.459,0.342L202.706,327.9z M201.617,323.804
				c0-1.116-0.522-2.034-1.459-2.034c-0.936,0-1.477,0.918-1.477,2.061c0,1.152,0.549,2.035,1.477,2.035
				S201.617,324.992,201.617,323.804z"/>
			<path fill="#FFFFFF" d="M205.234,325.298l-0.432,1.558h-1.414l1.846-6.068h1.801l1.891,6.068h-1.486l-0.468-1.558H205.234z
				 M206.773,324.271l-0.378-1.287c-0.108-0.36-0.216-0.811-0.306-1.17h-0.019c-0.09,0.359-0.18,0.818-0.278,1.17l-0.361,1.287
				H206.773z"/>
			<path fill="#FFFFFF" d="M204.43,337.655c-0.127-0.136-0.252-0.271-0.396-0.433c-0.396,0.307-0.945,0.531-1.666,0.531
				c-1.467,0-2.115-0.863-2.115-1.719c0-0.802,0.459-1.378,1.152-1.747v-0.026c-0.261-0.297-0.468-0.738-0.468-1.18
				c0-0.766,0.612-1.603,1.837-1.603c0.936,0,1.639,0.55,1.639,1.423c0,0.611-0.361,1.143-1.198,1.557l-0.009,0.036
				c0.352,0.396,0.721,0.837,1.018,1.144c0.242-0.387,0.432-0.945,0.513-1.485h1.225c-0.162,0.927-0.468,1.71-1.009,2.305
				c0.343,0.396,0.693,0.792,1.072,1.197H204.43z M203.395,336.458c-0.369-0.369-0.865-0.937-1.369-1.495
				c-0.252,0.189-0.477,0.451-0.477,0.847c0,0.522,0.387,0.954,1.025,0.954C202.917,336.764,203.214,336.629,203.395,336.458z
				 M202.71,332.334c-0.351,0-0.54,0.307-0.54,0.622c0,0.306,0.135,0.576,0.423,0.873c0.441-0.297,0.657-0.54,0.657-0.892
				c0-0.287-0.171-0.604-0.521-0.604H202.71z"/>
			<path fill="#FFFFFF" d="M181.528,342.388v3.483c0,1.055,0.405,1.585,1.099,1.585c0.721,0,1.116-0.504,1.116-1.585v-3.483h1.368
				v3.403c0,1.873-0.945,2.764-2.529,2.764c-1.531,0-2.422-0.855-2.422-2.781v-3.386H181.528z"/>
			<path fill="#FFFFFF" d="M186.127,347.268c0.252,0.152,0.774,0.324,1.18,0.324c0.414,0,0.585-0.136,0.585-0.361
				c0-0.233-0.136-0.342-0.64-0.512c-0.918-0.307-1.27-0.802-1.26-1.324c0-0.828,0.702-1.449,1.791-1.449
				c0.514,0,0.964,0.126,1.234,0.262l-0.234,0.944c-0.198-0.108-0.586-0.252-0.955-0.252c-0.332,0-0.521,0.136-0.521,0.351
				c0,0.217,0.171,0.324,0.711,0.514c0.838,0.288,1.18,0.721,1.188,1.359c0,0.828-0.64,1.432-1.899,1.432
				c-0.576,0-1.09-0.135-1.423-0.314L186.127,347.268z"/>
			<path fill="#FFFFFF" d="M191.096,346.691c0.035,0.566,0.603,0.837,1.242,0.837c0.468,0,0.846-0.063,1.215-0.188l0.18,0.927
				c-0.449,0.188-0.999,0.278-1.593,0.278c-1.495,0-2.351-0.863-2.351-2.241c0-1.116,0.693-2.35,2.225-2.35
				c1.422,0,1.963,1.107,1.963,2.196c0,0.234-0.027,0.441-0.045,0.541H191.096z M192.707,345.755c0-0.333-0.145-0.892-0.774-0.892
				c-0.576,0-0.811,0.531-0.847,0.892H192.707z"/>
			<path fill="#FFFFFF" d="M194.794,345.502c0-0.647-0.009-1.07-0.036-1.449h1.17l0.055,0.811h0.035
				c0.226-0.648,0.757-0.918,1.189-0.918c0.125,0,0.188,0.009,0.287,0.027v1.287c-0.107-0.018-0.216-0.036-0.369-0.036
				c-0.504,0-0.846,0.271-0.936,0.693c-0.018,0.09-0.027,0.198-0.027,0.306v2.232h-1.368V345.502z"/>
			<path fill="#FFFFFF" d="M200.904,343.54h-1.638v-1.152h4.663v1.152h-1.656v4.915h-1.369V343.54z"/>
			<path fill="#FFFFFF" d="M204.938,346.691c0.035,0.566,0.603,0.837,1.242,0.837c0.468,0,0.846-0.063,1.215-0.188l0.18,0.927
				c-0.449,0.188-0.999,0.278-1.593,0.278c-1.495,0-2.351-0.863-2.351-2.241c0-1.116,0.693-2.35,2.225-2.35
				c1.422,0,1.963,1.107,1.963,2.196c0,0.234-0.027,0.441-0.045,0.541H204.938z M206.549,345.755c0-0.333-0.145-0.892-0.774-0.892
				c-0.576,0-0.811,0.531-0.847,0.892H206.549z"/>
			<path fill="#FFFFFF" d="M208.627,347.268c0.252,0.152,0.773,0.324,1.18,0.324c0.414,0,0.584-0.136,0.584-0.361
				c0-0.233-0.135-0.342-0.639-0.512c-0.918-0.307-1.27-0.802-1.26-1.324c0-0.828,0.701-1.449,1.791-1.449
				c0.514,0,0.963,0.126,1.233,0.262l-0.234,0.944c-0.198-0.108-0.585-0.252-0.954-0.252c-0.333,0-0.521,0.136-0.521,0.351
				c0,0.217,0.17,0.324,0.711,0.514c0.837,0.288,1.179,0.721,1.188,1.359c0,0.828-0.639,1.432-1.898,1.432
				c-0.576,0-1.09-0.135-1.424-0.314L208.627,347.268z"/>
			<path fill="#FFFFFF" d="M214.072,342.865v1.188h0.98v1.009h-0.98v1.593c0,0.531,0.135,0.775,0.539,0.775
				c0.189,0,0.279-0.01,0.406-0.037l0.008,1.036c-0.17,0.063-0.504,0.116-0.881,0.116c-0.441,0-0.811-0.152-1.036-0.377
				c-0.252-0.262-0.378-0.685-0.378-1.306v-1.801h-0.586v-1.009h0.586v-0.818L214.072,342.865z"/>
			<path fill="#FFFFFF" d="M217.258,342.829c0,0.378-0.279,0.685-0.738,0.685c-0.433,0-0.711-0.307-0.711-0.685
				c0-0.388,0.287-0.685,0.729-0.685S217.248,342.441,217.258,342.829z M215.844,348.455v-4.402h1.369v4.402H215.844z"/>
			<path fill="#FFFFFF" d="M218.311,345.457c0-0.549-0.019-1.008-0.037-1.404h1.189l0.062,0.613h0.027
				c0.18-0.289,0.621-0.712,1.359-0.712c0.9,0,1.575,0.604,1.575,1.899v2.602h-1.368v-2.439c0-0.566-0.198-0.954-0.693-0.954
				c-0.379,0-0.604,0.261-0.703,0.513c-0.035,0.09-0.045,0.217-0.045,0.343v2.538h-1.367V345.457z"/>
			<path fill="#FFFFFF" d="M227.752,347.816c0,0.846-0.171,1.539-0.676,1.98c-0.477,0.414-1.134,0.54-1.781,0.54
				c-0.586,0-1.189-0.116-1.585-0.333l0.271-1.045c0.278,0.162,0.756,0.334,1.277,0.334c0.648,0,1.145-0.342,1.145-1.162v-0.278
				h-0.019c-0.261,0.36-0.685,0.567-1.188,0.567c-1.09,0-1.863-0.883-1.863-2.143c0-1.423,0.909-2.323,1.998-2.323
				c0.604,0,0.981,0.261,1.207,0.63h0.018l0.045-0.531h1.188c-0.019,0.289-0.036,0.658-0.036,1.314V347.816z M226.384,345.845
				c0-0.081-0.009-0.171-0.027-0.252c-0.099-0.36-0.36-0.603-0.737-0.603c-0.505,0-0.9,0.449-0.9,1.25
				c0,0.658,0.324,1.171,0.891,1.171c0.36,0,0.639-0.233,0.729-0.549c0.036-0.108,0.045-0.253,0.045-0.369V345.845z"/>
		</g>
	</g>
	<g>
		<g>
			<rect x="88.553" y="333.584" fill="#414042" width="64.217" height="1.5"/>
		</g>
		<g>
			<g>
				<polygon fill="#414042" points="148.557,339.889 150.917,334.334 148.557,328.779 161.725,334.334 				"/>
			</g>
		</g>
	</g>
	<g>
		<g>
			<rect x="8.641" y="104.761" fill="#DEDDDD" width="231.859" height="17.5"/>
			<path fill="#A1A0A0" d="M241,122.761h-1.719v-1H240v-2.281h1V122.761z M237.281,122.761h-4v-1h4V122.761z M231.281,122.761h-4v-1
				h4V122.761z M225.281,122.761h-4v-1h4V122.761z M219.281,122.761h-4v-1h4V122.761z M213.281,122.761h-4v-1h4V122.761z
				 M207.281,122.761h-4v-1h4V122.761z M201.281,122.761h-4v-1h4V122.761z M195.281,122.761h-4v-1h4V122.761z M189.281,122.761h-4
				v-1h4V122.761z M183.281,122.761h-4v-1h4V122.761z M177.281,122.761h-4v-1h4V122.761z M171.281,122.761h-4v-1h4V122.761z
				 M165.281,122.761h-4v-1h4V122.761z M159.281,122.761h-4v-1h4V122.761z M153.281,122.761h-4v-1h4V122.761z M147.281,122.761h-4
				v-1h4V122.761z M141.281,122.761h-4v-1h4V122.761z M135.281,122.761h-4v-1h4V122.761z M129.281,122.761h-4v-1h4V122.761z
				 M123.281,122.761h-4v-1h4V122.761z M117.281,122.761h-4v-1h4V122.761z M111.281,122.761h-4v-1h4V122.761z M105.281,122.761h-4
				v-1h4V122.761z M99.281,122.761h-4v-1h4V122.761z M93.281,122.761h-4v-1h4V122.761z M87.281,122.761h-4v-1h4V122.761z
				 M81.281,122.761h-4v-1h4V122.761z M75.281,122.761h-4v-1h4V122.761z M69.281,122.761h-4v-1h4V122.761z M63.281,122.761h-4v-1h4
				V122.761z M57.281,122.761h-4v-1h4V122.761z M51.281,122.761h-4v-1h4V122.761z M45.281,122.761h-4v-1h4V122.761z M39.281,122.761
				h-4v-1h4V122.761z M33.281,122.761h-4v-1h4V122.761z M27.281,122.761h-4v-1h4V122.761z M21.281,122.761h-4v-1h4V122.761z
				 M15.281,122.761h-4v-1h4V122.761z M9.281,122.761H8.141v-3.859h1v2.859h0.141V122.761z M241,117.479h-1v-4h1V117.479z
				 M9.141,116.901h-1v-4h1V116.901z M241,111.479h-1v-4h1V111.479z M9.141,110.901h-1v-4h1V110.901z M241,105.479h-1v-0.218h-3.5
				v-1h4.5V105.479z M234.5,105.261h-4v-1h4V105.261z M228.5,105.261h-4v-1h4V105.261z M222.5,105.261h-4v-1h4V105.261z
				 M216.5,105.261h-4v-1h4V105.261z M210.5,105.261h-4v-1h4V105.261z M204.5,105.261h-4v-1h4V105.261z M198.5,105.261h-4v-1h4
				V105.261z M192.5,105.261h-4v-1h4V105.261z M186.5,105.261h-4v-1h4V105.261z M180.5,105.261h-4v-1h4V105.261z M174.5,105.261h-4
				v-1h4V105.261z M168.5,105.261h-4v-1h4V105.261z M162.5,105.261h-4v-1h4V105.261z M156.5,105.261h-4v-1h4V105.261z
				 M150.5,105.261h-4v-1h4V105.261z M144.5,105.261h-4v-1h4V105.261z M138.5,105.261h-4v-1h4V105.261z M132.5,105.261h-4v-1h4
				V105.261z M126.5,105.261h-4v-1h4V105.261z M120.5,105.261h-4v-1h4V105.261z M114.5,105.261h-4v-1h4V105.261z M108.5,105.261h-4
				v-1h4V105.261z M102.5,105.261h-4v-1h4V105.261z M96.5,105.261h-4v-1h4V105.261z M90.5,105.261h-4v-1h4V105.261z M84.5,105.261
				h-4v-1h4V105.261z M78.5,105.261h-4v-1h4V105.261z M72.5,105.261h-4v-1h4V105.261z M66.5,105.261h-4v-1h4V105.261z M60.5,105.261
				h-4v-1h4V105.261z M54.5,105.261h-4v-1h4V105.261z M48.5,105.261h-4v-1h4V105.261z M42.5,105.261h-4v-1h4V105.261z M36.5,105.261
				h-4v-1h4V105.261z M30.5,105.261h-4v-1h4V105.261z M24.5,105.261h-4v-1h4V105.261z M18.5,105.261h-4v-1h4V105.261z M12.5,105.261
				H8.641v-0.359h-0.5v-0.641H12.5V105.261z"/>
		</g>
		<g>
			<path fill="#414042" d="M90.963,110.283c0.504-0.081,1.161-0.135,1.846-0.135c1.161,0,1.917,0.215,2.494,0.647
				c0.63,0.468,1.026,1.216,1.026,2.287c0,1.161-0.423,1.962-1,2.458c-0.639,0.531-1.621,0.783-2.809,0.783
				c-0.711,0-1.225-0.045-1.558-0.09V110.283z M92.331,115.226c0.117,0.026,0.315,0.026,0.478,0.026
				c1.251,0.01,2.07-0.675,2.07-2.124c0-1.261-0.738-1.927-1.926-1.927c-0.297,0-0.504,0.027-0.622,0.055V115.226z"/>
			<path fill="#414042" d="M98.235,114.496c0.036,0.567,0.603,0.838,1.242,0.838c0.468,0,0.846-0.063,1.215-0.189l0.18,0.928
				c-0.45,0.188-1,0.278-1.593,0.278c-1.495,0-2.35-0.864-2.35-2.241c0-1.117,0.693-2.35,2.224-2.35
				c1.422,0,1.962,1.107,1.962,2.196c0,0.233-0.027,0.44-0.045,0.54H98.235z M99.847,113.561c0-0.334-0.144-0.893-0.774-0.893
				c-0.576,0-0.811,0.531-0.847,0.893H99.847z"/>
			<path fill="#414042" d="M102.897,111.858l0.594,2.044c0.108,0.378,0.18,0.72,0.252,1.07h0.027
				c0.072-0.359,0.144-0.692,0.243-1.07l0.567-2.044h1.44l-1.639,4.402h-1.368l-1.603-4.402H102.897z"/>
			<path fill="#414042" d="M109.341,111.346h-1.638v-1.152h4.663v1.152h-1.656v4.915h-1.369V111.346z"/>
			<path fill="#414042" d="M113.373,114.496c0.036,0.567,0.603,0.838,1.242,0.838c0.468,0,0.846-0.063,1.215-0.189l0.18,0.928
				c-0.45,0.188-1,0.278-1.593,0.278c-1.495,0-2.35-0.864-2.35-2.241c0-1.117,0.693-2.35,2.224-2.35
				c1.422,0,1.962,1.107,1.962,2.196c0,0.233-0.027,0.44-0.045,0.54H113.373z M114.984,113.561c0-0.334-0.144-0.893-0.774-0.893
				c-0.576,0-0.811,0.531-0.847,0.893H114.984z"/>
			<path fill="#414042" d="M120.736,115.198c0,0.414,0.018,0.819,0.072,1.062h-1.233l-0.081-0.44h-0.027
				c-0.288,0.351-0.738,0.539-1.26,0.539c-0.892,0-1.422-0.648-1.422-1.35c0-1.144,1.026-1.684,2.583-1.684v-0.055
				c0-0.242-0.126-0.576-0.801-0.576c-0.45,0-0.927,0.153-1.215,0.334l-0.252-0.883c0.306-0.171,0.909-0.396,1.71-0.396
				c1.467,0,1.927,0.865,1.927,1.909V115.198z M119.413,114.182c-0.72,0-1.278,0.17-1.278,0.693c0,0.351,0.234,0.521,0.541,0.521
				c0.333,0,0.621-0.225,0.711-0.504c0.018-0.072,0.027-0.153,0.027-0.234V114.182z"/>
			<path fill="#414042" d="M121.824,113.263c0-0.549-0.018-1.009-0.036-1.404h1.161l0.054,0.595h0.027
				c0.189-0.289,0.585-0.703,1.333-0.703c0.576,0,1.018,0.297,1.207,0.757h0.018c0.171-0.234,0.36-0.415,0.576-0.54
				c0.243-0.135,0.513-0.217,0.837-0.217c0.846,0,1.485,0.595,1.485,1.918v2.593h-1.332v-2.395c0-0.64-0.207-1.009-0.648-1.009
				c-0.324,0-0.54,0.217-0.639,0.478c-0.027,0.099-0.045,0.233-0.045,0.351v2.575h-1.333v-2.476c0-0.549-0.198-0.928-0.639-0.928
				c-0.351,0-0.558,0.271-0.639,0.486c-0.045,0.108-0.054,0.234-0.054,0.352v2.565h-1.332V113.263z"/>
			<path fill="#414042" d="M131.427,110.273c0.441-0.071,1.089-0.125,1.828-0.125c0.9,0,1.53,0.135,1.962,0.477
				c0.369,0.288,0.567,0.721,0.567,1.278c0,0.765-0.549,1.296-1.071,1.485v0.027c0.423,0.171,0.657,0.566,0.81,1.125
				c0.189,0.693,0.369,1.486,0.486,1.72h-1.405c-0.09-0.181-0.243-0.666-0.414-1.413c-0.171-0.766-0.432-0.964-0.999-0.973h-0.405
				v2.386h-1.359V110.273z M132.786,112.885h0.54c0.684,0,1.089-0.342,1.089-0.873c0-0.549-0.378-0.838-1.008-0.838
				c-0.333,0-0.522,0.019-0.621,0.045V112.885z"/>
			<path fill="#414042" d="M137.772,114.496c0.036,0.567,0.603,0.838,1.242,0.838c0.468,0,0.846-0.063,1.215-0.189l0.18,0.928
				c-0.45,0.188-0.999,0.278-1.593,0.278c-1.495,0-2.35-0.864-2.35-2.241c0-1.117,0.693-2.35,2.224-2.35
				c1.423,0,1.963,1.107,1.963,2.196c0,0.233-0.027,0.44-0.045,0.54H137.772z M139.383,113.561c0-0.334-0.144-0.893-0.774-0.893
				c-0.576,0-0.811,0.531-0.847,0.893H139.383z"/>
			<path fill="#414042" d="M142.434,111.858l0.595,2.044c0.108,0.378,0.181,0.72,0.252,1.07h0.027
				c0.071-0.359,0.144-0.692,0.243-1.07l0.566-2.044h1.441l-1.639,4.402h-1.369l-1.602-4.402H142.434z"/>
			<path fill="#414042" d="M147.6,110.635c0,0.377-0.279,0.684-0.738,0.684c-0.432,0-0.711-0.307-0.711-0.684
				c0-0.388,0.288-0.686,0.729-0.686C147.32,109.949,147.591,110.247,147.6,110.635z M146.187,116.261v-4.402h1.368v4.402H146.187z"
				/>
			<path fill="#414042" d="M149.706,114.496c0.036,0.567,0.603,0.838,1.242,0.838c0.468,0,0.847-0.063,1.216-0.189l0.18,0.928
				c-0.45,0.188-1,0.278-1.594,0.278c-1.494,0-2.35-0.864-2.35-2.241c0-1.117,0.693-2.35,2.225-2.35
				c1.422,0,1.962,1.107,1.962,2.196c0,0.233-0.026,0.44-0.045,0.54H149.706z M151.317,113.561c0-0.334-0.144-0.893-0.774-0.893
				c-0.576,0-0.811,0.531-0.846,0.893H151.317z"/>
			<path fill="#414042" d="M154.296,111.858l0.36,1.81c0.08,0.45,0.17,0.937,0.242,1.44h0.027c0.081-0.504,0.217-0.999,0.315-1.432
				l0.468-1.818h1.08l0.441,1.755c0.126,0.505,0.243,0.991,0.324,1.495h0.018c0.063-0.495,0.153-0.999,0.262-1.503l0.369-1.747
				h1.342l-1.352,4.402h-1.277l-0.414-1.54c-0.117-0.432-0.199-0.828-0.289-1.377h-0.018c-0.081,0.549-0.171,0.963-0.279,1.369
				l-0.441,1.548h-1.287l-1.287-4.402H154.296z"/>
		</g>
	</g>
	<g>
		<g>
			<rect x="8.5" y="254.761" fill="#DEDDDD" width="231.584" height="17.5"/>
			<path fill="#A1A0A0" d="M240.584,272.761h-1.168v-1h0.168v-2.832h1V272.761z M237.416,272.761h-4v-1h4V272.761z M231.416,272.761
				h-4v-1h4V272.761z M225.416,272.761h-4v-1h4V272.761z M219.416,272.761h-4v-1h4V272.761z M213.416,272.761h-4v-1h4V272.761z
				 M207.416,272.761h-4v-1h4V272.761z M201.416,272.761h-4v-1h4V272.761z M195.416,272.761h-4v-1h4V272.761z M189.416,272.761h-4
				v-1h4V272.761z M183.416,272.761h-4v-1h4V272.761z M177.416,272.761h-4v-1h4V272.761z M171.416,272.761h-4v-1h4V272.761z
				 M165.416,272.761h-4v-1h4V272.761z M159.416,272.761h-4v-1h4V272.761z M153.416,272.761h-4v-1h4V272.761z M147.416,272.761h-4
				v-1h4V272.761z M141.416,272.761h-4v-1h4V272.761z M135.416,272.761h-4v-1h4V272.761z M129.416,272.761h-4v-1h4V272.761z
				 M123.416,272.761h-4v-1h4V272.761z M117.416,272.761h-4v-1h4V272.761z M111.416,272.761h-4v-1h4V272.761z M105.416,272.761h-4
				v-1h4V272.761z M99.416,272.761h-4v-1h4V272.761z M93.416,272.761h-4v-1h4V272.761z M87.416,272.761h-4v-1h4V272.761z
				 M81.416,272.761h-4v-1h4V272.761z M75.416,272.761h-4v-1h4V272.761z M69.416,272.761h-4v-1h4V272.761z M63.416,272.761h-4v-1h4
				V272.761z M57.416,272.761h-4v-1h4V272.761z M51.416,272.761h-4v-1h4V272.761z M45.416,272.761h-4v-1h4V272.761z M39.416,272.761
				h-4v-1h4V272.761z M33.416,272.761h-4v-1h4V272.761z M27.416,272.761h-4v-1h4V272.761z M21.416,272.761h-4v-1h4V272.761z
				 M15.416,272.761h-4v-1h4V272.761z M9.416,272.761H8v-3.584h1v2.584h0.416V272.761z M9,267.177H8v-4h1V267.177z M240.584,266.929
				h-1v-4h1V266.929z M9,261.177H8v-4h1V261.177z M240.584,260.929h-1v-4h1V260.929z M240.084,255.261h-4v-1h4.5v0.668h-0.5V255.261
				z M234.084,255.261h-4v-1h4V255.261z M228.084,255.261h-4v-1h4V255.261z M222.084,255.261h-4v-1h4V255.261z M216.084,255.261h-4
				v-1h4V255.261z M210.084,255.261h-4v-1h4V255.261z M204.084,255.261h-4v-1h4V255.261z M198.084,255.261h-4v-1h4V255.261z
				 M192.084,255.261h-4v-1h4V255.261z M186.084,255.261h-4v-1h4V255.261z M180.084,255.261h-4v-1h4V255.261z M174.084,255.261h-4
				v-1h4V255.261z M168.084,255.261h-4v-1h4V255.261z M162.084,255.261h-4v-1h4V255.261z M156.084,255.261h-4v-1h4V255.261z
				 M150.084,255.261h-4v-1h4V255.261z M144.084,255.261h-4v-1h4V255.261z M138.084,255.261h-4v-1h4V255.261z M132.084,255.261h-4
				v-1h4V255.261z M126.084,255.261h-4v-1h4V255.261z M120.084,255.261h-4v-1h4V255.261z M114.084,255.261h-4v-1h4V255.261z
				 M108.084,255.261h-4v-1h4V255.261z M102.084,255.261h-4v-1h4V255.261z M96.084,255.261h-4v-1h4V255.261z M90.084,255.261h-4v-1
				h4V255.261z M84.084,255.261h-4v-1h4V255.261z M78.084,255.261h-4v-1h4V255.261z M72.084,255.261h-4v-1h4V255.261z
				 M66.084,255.261h-4v-1h4V255.261z M60.084,255.261h-4v-1h4V255.261z M54.084,255.261h-4v-1h4V255.261z M48.084,255.261h-4v-1h4
				V255.261z M42.084,255.261h-4v-1h4V255.261z M36.084,255.261h-4v-1h4V255.261z M30.084,255.261h-4v-1h4V255.261z M24.084,255.261
				h-4v-1h4V255.261z M18.084,255.261h-4v-1h4V255.261z M12.084,255.261H8.5v-0.084H8v-0.916h4.084V255.261z"/>
		</g>
		<g>
			<path fill="#414042" d="M90.963,260.783c0.504-0.081,1.161-0.135,1.846-0.135c1.161,0,1.917,0.215,2.494,0.647
				c0.63,0.468,1.026,1.216,1.026,2.287c0,1.161-0.423,1.962-1,2.458c-0.639,0.531-1.621,0.783-2.809,0.783
				c-0.711,0-1.225-0.045-1.558-0.09V260.783z M92.331,265.726c0.117,0.026,0.315,0.026,0.478,0.026
				c1.251,0.01,2.07-0.675,2.07-2.124c0-1.261-0.738-1.927-1.926-1.927c-0.297,0-0.504,0.027-0.622,0.055V265.726z"/>
			<path fill="#414042" d="M98.235,264.996c0.036,0.567,0.603,0.838,1.242,0.838c0.468,0,0.846-0.063,1.215-0.189l0.18,0.928
				c-0.45,0.188-1,0.278-1.593,0.278c-1.495,0-2.35-0.864-2.35-2.241c0-1.117,0.693-2.35,2.224-2.35
				c1.422,0,1.962,1.107,1.962,2.196c0,0.233-0.027,0.44-0.045,0.54H98.235z M99.847,264.061c0-0.334-0.144-0.893-0.774-0.893
				c-0.576,0-0.811,0.531-0.847,0.893H99.847z"/>
			<path fill="#414042" d="M102.897,262.358l0.594,2.044c0.108,0.378,0.18,0.72,0.252,1.07h0.027
				c0.072-0.359,0.144-0.692,0.243-1.07l0.567-2.044h1.44l-1.639,4.402h-1.368l-1.603-4.402H102.897z"/>
			<path fill="#414042" d="M109.341,261.846h-1.638v-1.152h4.663v1.152h-1.656v4.915h-1.369V261.846z"/>
			<path fill="#414042" d="M113.373,264.996c0.036,0.567,0.603,0.838,1.242,0.838c0.468,0,0.846-0.063,1.215-0.189l0.18,0.928
				c-0.45,0.188-1,0.278-1.593,0.278c-1.495,0-2.35-0.864-2.35-2.241c0-1.117,0.693-2.35,2.224-2.35
				c1.422,0,1.962,1.107,1.962,2.196c0,0.233-0.027,0.44-0.045,0.54H113.373z M114.984,264.061c0-0.334-0.144-0.893-0.774-0.893
				c-0.576,0-0.811,0.531-0.847,0.893H114.984z"/>
			<path fill="#414042" d="M120.736,265.698c0,0.414,0.018,0.819,0.072,1.062h-1.233l-0.081-0.44h-0.027
				c-0.288,0.351-0.738,0.539-1.26,0.539c-0.892,0-1.422-0.648-1.422-1.35c0-1.144,1.026-1.684,2.583-1.684v-0.055
				c0-0.242-0.126-0.576-0.801-0.576c-0.45,0-0.927,0.153-1.215,0.334l-0.252-0.883c0.306-0.171,0.909-0.396,1.71-0.396
				c1.467,0,1.927,0.865,1.927,1.909V265.698z M119.413,264.682c-0.72,0-1.278,0.17-1.278,0.693c0,0.351,0.234,0.521,0.541,0.521
				c0.333,0,0.621-0.225,0.711-0.504c0.018-0.072,0.027-0.153,0.027-0.234V264.682z"/>
			<path fill="#414042" d="M121.824,263.763c0-0.549-0.018-1.009-0.036-1.404h1.161l0.054,0.595h0.027
				c0.189-0.289,0.585-0.703,1.333-0.703c0.576,0,1.018,0.297,1.207,0.757h0.018c0.171-0.234,0.36-0.415,0.576-0.54
				c0.243-0.135,0.513-0.217,0.837-0.217c0.846,0,1.485,0.595,1.485,1.918v2.593h-1.332v-2.395c0-0.64-0.207-1.009-0.648-1.009
				c-0.324,0-0.54,0.217-0.639,0.478c-0.027,0.099-0.045,0.233-0.045,0.351v2.575h-1.333v-2.476c0-0.549-0.198-0.928-0.639-0.928
				c-0.351,0-0.558,0.271-0.639,0.486c-0.045,0.108-0.054,0.234-0.054,0.352v2.565h-1.332V263.763z"/>
			<path fill="#414042" d="M131.427,260.773c0.441-0.071,1.089-0.125,1.828-0.125c0.9,0,1.53,0.135,1.962,0.477
				c0.369,0.288,0.567,0.721,0.567,1.278c0,0.765-0.549,1.296-1.071,1.485v0.027c0.423,0.171,0.657,0.566,0.81,1.125
				c0.189,0.693,0.369,1.486,0.486,1.72h-1.405c-0.09-0.181-0.243-0.666-0.414-1.413c-0.171-0.766-0.432-0.964-0.999-0.973h-0.405
				v2.386h-1.359V260.773z M132.786,263.385h0.54c0.684,0,1.089-0.342,1.089-0.873c0-0.549-0.378-0.838-1.008-0.838
				c-0.333,0-0.522,0.019-0.621,0.045V263.385z"/>
			<path fill="#414042" d="M137.772,264.996c0.036,0.567,0.603,0.838,1.242,0.838c0.468,0,0.846-0.063,1.215-0.189l0.18,0.928
				c-0.45,0.188-0.999,0.278-1.593,0.278c-1.495,0-2.35-0.864-2.35-2.241c0-1.117,0.693-2.35,2.224-2.35
				c1.423,0,1.963,1.107,1.963,2.196c0,0.233-0.027,0.44-0.045,0.54H137.772z M139.383,264.061c0-0.334-0.144-0.893-0.774-0.893
				c-0.576,0-0.811,0.531-0.847,0.893H139.383z"/>
			<path fill="#414042" d="M142.434,262.358l0.595,2.044c0.108,0.378,0.181,0.72,0.252,1.07h0.027
				c0.071-0.359,0.144-0.692,0.243-1.07l0.566-2.044h1.441l-1.639,4.402h-1.369l-1.602-4.402H142.434z"/>
			<path fill="#414042" d="M147.6,261.135c0,0.377-0.279,0.684-0.738,0.684c-0.432,0-0.711-0.307-0.711-0.684
				c0-0.388,0.288-0.686,0.729-0.686C147.32,260.449,147.591,260.747,147.6,261.135z M146.187,266.761v-4.402h1.368v4.402H146.187z"
				/>
			<path fill="#414042" d="M149.706,264.996c0.036,0.567,0.603,0.838,1.242,0.838c0.468,0,0.847-0.063,1.216-0.189l0.18,0.928
				c-0.45,0.188-1,0.278-1.594,0.278c-1.494,0-2.35-0.864-2.35-2.241c0-1.117,0.693-2.35,2.225-2.35
				c1.422,0,1.962,1.107,1.962,2.196c0,0.233-0.026,0.44-0.045,0.54H149.706z M151.317,264.061c0-0.334-0.144-0.893-0.774-0.893
				c-0.576,0-0.811,0.531-0.846,0.893H151.317z"/>
			<path fill="#414042" d="M154.296,262.358l0.36,1.81c0.08,0.45,0.17,0.937,0.242,1.44h0.027c0.081-0.504,0.217-0.999,0.315-1.432
				l0.468-1.818h1.08l0.441,1.755c0.126,0.505,0.243,0.991,0.324,1.495h0.018c0.063-0.495,0.153-0.999,0.262-1.503l0.369-1.747
				h1.342l-1.352,4.402h-1.277l-0.414-1.54c-0.117-0.432-0.199-0.828-0.289-1.377h-0.018c-0.081,0.549-0.171,0.963-0.279,1.369
				l-0.441,1.548h-1.287l-1.287-4.402H154.296z"/>
		</g>
	</g>
	<g>
		<g>
			<path fill="#414042" d="M217.284,142.668l-1.225-0.867c3.575-5.046,7.837-13.756,7.837-26.595
				c0-22.721-13.436-27.748-13.571-27.795l0.496-1.416c0.596,0.208,14.575,5.364,14.575,29.211
				C225.396,128.439,220.984,137.444,217.284,142.668z"/>
		</g>
		<g>
			<g>
				<polygon fill="#414042" points="215.178,135.268 217.759,140.723 223.478,142.652 210.574,148.797 				"/>
			</g>
		</g>
	</g>
	<g>
		<g>
			<rect x="43.489" y="234.261" fill="#414042" width="1.5" height="49.046"/>
		</g>
		<g>
			<g>
				<polygon fill="#414042" points="38.685,279.094 44.239,281.453 49.794,279.094 44.239,292.261 				"/>
			</g>
		</g>
	</g>
</g>
</svg>
