<?xml version="1.0" encoding="utf-8"?>
<!-- Generator: Adobe Illustrator 15.0.0, SVG Export Plug-In . SVG Version: 6.00 Build 0)  -->
<!DOCTYPE svg PUBLIC "-//W3C//DTD SVG 1.0//EN" "http://www.w3.org/TR/2001/REC-SVG-20010904/DTD/svg10.dtd">
<svg version="1.0" id="Layer_1" xmlns="http://www.w3.org/2000/svg" xmlns:xlink="http://www.w3.org/1999/xlink" x="0px" y="0px"
	 width="232.86px" height="360.334px" viewBox="0 0 232.86 360.334" enable-background="new 0 0 232.86 360.334"
	 xml:space="preserve">
<g>
	<g>
		<g>
			<path fill="#404041" d="M188.326,137.905c-0.596-0.209-14.575-5.365-14.575-29.211c0-13.234,4.412-22.238,8.112-27.462
				l1.225,0.867c-3.575,5.046-7.837,13.756-7.837,26.595c0,22.719,13.436,27.746,13.571,27.795L188.326,137.905z"/>
		</g>
		<g>
			<g>
				<polygon fill="#404041" points="183.969,88.632 181.388,83.177 175.67,81.248 188.573,75.103 				"/>
			</g>
		</g>
	</g>
	<g>
		<g>
			<g>
				<circle fill="#EE4137" cx="37.22" cy="35.834" r="35.833"/>
			</g>
		</g>
		<g>
			<path fill="#FFFFFF" d="M19.725,22.369c0.441-0.072,1.089-0.126,1.828-0.126c0.9,0,1.53,0.135,1.962,0.477
				c0.369,0.288,0.567,0.72,0.567,1.278c0,0.765-0.549,1.296-1.071,1.485v0.027c0.423,0.171,0.657,0.567,0.81,1.125
				c0.189,0.693,0.369,1.486,0.486,1.72h-1.405c-0.09-0.18-0.243-0.666-0.414-1.414c-0.171-0.765-0.432-0.963-0.999-0.972h-0.405
				v2.386h-1.359V22.369z M21.084,24.979h0.54c0.684,0,1.089-0.342,1.089-0.874c0-0.549-0.378-0.837-1.008-0.837
				c-0.333,0-0.522,0.018-0.621,0.045V24.979z"/>
			<path fill="#FFFFFF" d="M26.07,26.591c0.036,0.567,0.603,0.837,1.242,0.837c0.468,0,0.846-0.063,1.215-0.189l0.18,0.927
				c-0.45,0.189-1,0.279-1.593,0.279c-1.495,0-2.35-0.864-2.35-2.242c0-1.116,0.693-2.35,2.224-2.35
				c1.422,0,1.962,1.107,1.962,2.197c0,0.234-0.027,0.441-0.045,0.54H26.07z M27.681,25.655c0-0.333-0.144-0.892-0.774-0.892
				c-0.576,0-0.811,0.531-0.847,0.892H27.681z"/>
			<path fill="#FFFFFF" d="M29.759,27.167c0.252,0.153,0.774,0.324,1.18,0.324c0.414,0,0.585-0.135,0.585-0.36
				c0-0.234-0.135-0.342-0.639-0.513c-0.918-0.306-1.27-0.801-1.26-1.324c0-0.828,0.702-1.449,1.792-1.449
				c0.513,0,0.963,0.126,1.233,0.261l-0.234,0.945c-0.198-0.108-0.585-0.252-0.954-0.252c-0.333,0-0.522,0.135-0.522,0.351
				c0,0.216,0.171,0.324,0.711,0.513c0.837,0.288,1.179,0.72,1.188,1.359c0,0.828-0.639,1.432-1.899,1.432
				c-0.576,0-1.089-0.135-1.423-0.315L29.759,27.167z"/>
			<path fill="#FFFFFF" d="M34.728,26.591c0.036,0.567,0.603,0.837,1.242,0.837c0.468,0,0.846-0.063,1.215-0.189l0.18,0.927
				c-0.45,0.189-0.999,0.279-1.593,0.279c-1.495,0-2.35-0.864-2.35-2.242c0-1.116,0.693-2.35,2.224-2.35
				c1.423,0,1.963,1.107,1.963,2.197c0,0.234-0.027,0.441-0.045,0.54H34.728z M36.339,25.655c0-0.333-0.144-0.892-0.774-0.892
				c-0.576,0-0.811,0.531-0.847,0.892H36.339z"/>
			<path fill="#FFFFFF" d="M42.09,27.293c0,0.415,0.018,0.819,0.072,1.062h-1.233l-0.081-0.441h-0.027
				c-0.288,0.351-0.738,0.54-1.26,0.54c-0.892,0-1.422-0.648-1.422-1.351c0-1.143,1.026-1.684,2.583-1.684v-0.054
				c0-0.243-0.126-0.576-0.801-0.576c-0.45,0-0.927,0.153-1.215,0.333l-0.252-0.882c0.306-0.171,0.909-0.396,1.71-0.396
				c1.467,0,1.927,0.864,1.927,1.909V27.293z M40.767,26.276c-0.72,0-1.278,0.171-1.278,0.693c0,0.351,0.234,0.522,0.541,0.522
				c0.333,0,0.621-0.225,0.711-0.504c0.018-0.072,0.027-0.153,0.027-0.234V26.276z"/>
			<path fill="#FFFFFF" d="M43.179,25.403c0-0.648-0.009-1.072-0.036-1.45h1.17l0.054,0.81h0.036
				c0.225-0.648,0.756-0.918,1.188-0.918c0.126,0,0.189,0.009,0.288,0.027v1.288c-0.108-0.018-0.216-0.036-0.369-0.036
				c-0.504,0-0.846,0.27-0.936,0.693c-0.018,0.09-0.027,0.198-0.027,0.306v2.233h-1.368V25.403z"/>
			<path fill="#FFFFFF" d="M49.83,28.238c-0.243,0.117-0.702,0.207-1.224,0.207c-1.422,0-2.332-0.873-2.332-2.25
				c0-1.288,0.882-2.341,2.521-2.341c0.36,0,0.756,0.063,1.044,0.171l-0.216,1.017c-0.162-0.072-0.405-0.135-0.765-0.135
				c-0.72,0-1.188,0.513-1.179,1.233c0,0.801,0.54,1.233,1.206,1.233c0.324,0,0.576-0.054,0.783-0.144L49.83,28.238z"/>
			<path fill="#FFFFFF" d="M50.585,21.963h1.368v2.521h0.018c0.144-0.198,0.324-0.351,0.54-0.459
				c0.207-0.108,0.459-0.171,0.711-0.171c0.873,0,1.54,0.604,1.54,1.936v2.566h-1.369v-2.422c0-0.576-0.198-0.972-0.711-0.972
				c-0.36,0-0.585,0.234-0.685,0.486c-0.036,0.081-0.045,0.198-0.045,0.297v2.611h-1.368V21.963z"/>
			<path fill="#FFFFFF" d="M37.717,39.155c-0.126-0.135-0.252-0.27-0.396-0.432c-0.396,0.306-0.945,0.531-1.666,0.531
				c-1.467,0-2.115-0.864-2.115-1.72c0-0.801,0.459-1.377,1.152-1.747v-0.027c-0.261-0.297-0.468-0.738-0.468-1.179
				c0-0.765,0.612-1.603,1.836-1.603c0.937,0,1.639,0.549,1.639,1.422c0,0.612-0.36,1.144-1.198,1.558l-0.009,0.036
				c0.351,0.396,0.72,0.837,1.018,1.144c0.243-0.387,0.432-0.945,0.513-1.485h1.225c-0.162,0.927-0.468,1.71-1.008,2.305
				c0.342,0.396,0.693,0.792,1.071,1.197H37.717z M36.681,37.958c-0.369-0.369-0.864-0.937-1.368-1.495
				c-0.252,0.189-0.477,0.45-0.477,0.846c0,0.522,0.387,0.955,1.026,0.955C36.204,38.264,36.501,38.129,36.681,37.958z
				 M35.997,33.834c-0.351,0-0.54,0.306-0.54,0.622c0,0.306,0.135,0.576,0.423,0.873c0.441-0.297,0.657-0.54,0.657-0.891
				c0-0.288-0.171-0.604-0.522-0.604H35.997z"/>
			<path fill="#FFFFFF" d="M22.632,48.398L22.2,49.956h-1.414l1.846-6.068h1.8l1.891,6.068h-1.485l-0.468-1.558H22.632z
				 M24.171,47.372l-0.378-1.287c-0.108-0.36-0.216-0.811-0.306-1.17h-0.018c-0.09,0.36-0.18,0.819-0.279,1.17l-0.36,1.287H24.171z"
				/>
			<path fill="#FFFFFF" d="M27.024,46.958c0-0.549-0.018-1.008-0.036-1.404h1.188l0.063,0.612h0.027
				c0.18-0.288,0.621-0.711,1.359-0.711c0.9,0,1.576,0.604,1.576,1.9v2.602h-1.369v-2.44c0-0.567-0.198-0.954-0.693-0.954
				c-0.378,0-0.604,0.261-0.703,0.513c-0.036,0.09-0.045,0.216-0.045,0.342v2.539h-1.368V46.958z"/>
			<path fill="#FFFFFF" d="M35.962,48.893c0,0.414,0.018,0.819,0.072,1.062H34.8l-0.081-0.441h-0.027
				c-0.288,0.351-0.738,0.54-1.26,0.54c-0.891,0-1.422-0.648-1.422-1.351c0-1.143,1.026-1.684,2.583-1.684v-0.054
				c0-0.243-0.126-0.576-0.801-0.576c-0.45,0-0.927,0.153-1.215,0.333l-0.252-0.882c0.306-0.171,0.909-0.396,1.71-0.396
				c1.467,0,1.927,0.864,1.927,1.909V48.893z M34.638,47.876c-0.72,0-1.278,0.171-1.278,0.693c0,0.351,0.234,0.522,0.541,0.522
				c0.333,0,0.621-0.225,0.711-0.504c0.018-0.072,0.027-0.153,0.027-0.234V47.876z"/>
			<path fill="#FFFFFF" d="M37.05,43.563h1.368v6.392H37.05V43.563z"/>
			<path fill="#FFFFFF" d="M40.551,45.553l0.657,2.17c0.072,0.252,0.162,0.585,0.216,0.819h0.036
				c0.054-0.243,0.126-0.567,0.189-0.828l0.549-2.161h1.458l-1.026,2.899c-0.63,1.755-1.054,2.449-1.549,2.89
				c-0.468,0.415-0.972,0.567-1.314,0.604l-0.297-1.152c0.171-0.036,0.387-0.117,0.594-0.234c0.207-0.108,0.441-0.333,0.567-0.549
				c0.045-0.072,0.072-0.144,0.072-0.198s-0.009-0.117-0.054-0.225l-1.62-4.033H40.551z"/>
			<path fill="#FFFFFF" d="M44.079,48.767c0.252,0.153,0.774,0.324,1.18,0.324c0.414,0,0.585-0.135,0.585-0.36
				c0-0.234-0.135-0.342-0.639-0.513c-0.918-0.306-1.27-0.801-1.26-1.324c0-0.828,0.702-1.449,1.792-1.449
				c0.513,0,0.963,0.126,1.233,0.261l-0.234,0.945c-0.198-0.108-0.585-0.252-0.954-0.252c-0.333,0-0.522,0.135-0.522,0.351
				c0,0.216,0.171,0.324,0.711,0.513c0.837,0.288,1.179,0.72,1.188,1.359c0,0.829-0.639,1.432-1.899,1.432
				c-0.576,0-1.089-0.135-1.423-0.315L44.079,48.767z"/>
			<path fill="#FFFFFF" d="M49.407,44.329c0,0.378-0.279,0.684-0.738,0.684c-0.433,0-0.711-0.306-0.711-0.684
				c0-0.387,0.288-0.685,0.729-0.685C49.128,43.645,49.398,43.942,49.407,44.329z M47.994,49.956v-4.402h1.368v4.402H47.994z"/>
			<path fill="#FFFFFF" d="M50.45,48.767c0.252,0.153,0.774,0.324,1.18,0.324c0.414,0,0.585-0.135,0.585-0.36
				c0-0.234-0.135-0.342-0.639-0.513c-0.918-0.306-1.27-0.801-1.26-1.324c0-0.828,0.702-1.449,1.792-1.449
				c0.513,0,0.963,0.126,1.233,0.261l-0.234,0.945c-0.198-0.108-0.585-0.252-0.954-0.252c-0.333,0-0.522,0.135-0.522,0.351
				c0,0.216,0.171,0.324,0.711,0.513c0.837,0.288,1.179,0.72,1.188,1.359c0,0.829-0.639,1.432-1.899,1.432
				c-0.576,0-1.089-0.135-1.423-0.315L50.45,48.767z"/>
		</g>
	</g>
	<g>
		<g>
			<g>
				<circle fill="#EE4137" cx="195.545" cy="35.834" r="35.833"/>
			</g>
		</g>
		<g>
			<path fill="#FFFFFF" d="M186.023,27.288h1.369v4.916h2.412v1.152h-3.781V27.288z"/>
			<path fill="#FFFFFF" d="M194.835,31.105c0,1.611-1.143,2.35-2.322,2.35c-1.287,0-2.277-0.846-2.277-2.269
				c0-1.432,0.936-2.341,2.358-2.341C193.935,28.845,194.835,29.772,194.835,31.105z M191.649,31.15c0,0.756,0.315,1.323,0.9,1.323
				c0.54,0,0.873-0.531,0.873-1.333c0-0.648-0.252-1.314-0.873-1.314C191.901,29.827,191.649,30.501,191.649,31.15z"/>
			<path fill="#FFFFFF" d="M197.904,30.538v0.909h-2.358v-0.909H197.904z"/>
			<path fill="#FFFFFF" d="M198.777,27.288h3.699v1.125h-2.331v1.386h2.179v1.116h-2.179v2.44h-1.368V27.288z"/>
			<path fill="#FFFFFF" d="M204.699,27.729c0,0.378-0.278,0.684-0.738,0.684c-0.432,0-0.711-0.306-0.711-0.684
				c0-0.387,0.289-0.685,0.729-0.685C204.42,27.044,204.691,27.342,204.699,27.729z M203.287,33.355v-4.402h1.367v4.402H203.287z"/>
			<path fill="#FFFFFF" d="M179.989,38.177c0.504-0.081,1.161-0.135,1.846-0.135c1.161,0,1.917,0.216,2.493,0.648
				c0.631,0.468,1.027,1.215,1.027,2.287c0,1.161-0.424,1.962-1,2.458c-0.639,0.531-1.621,0.783-2.809,0.783
				c-0.711,0-1.225-0.045-1.558-0.09V38.177z M181.357,43.12c0.117,0.027,0.315,0.027,0.478,0.027
				c1.251,0.009,2.07-0.675,2.07-2.125c0-1.26-0.738-1.927-1.927-1.927c-0.297,0-0.504,0.027-0.621,0.054V43.12z"/>
			<path fill="#FFFFFF" d="M187.261,42.391c0.036,0.567,0.604,0.837,1.242,0.837c0.469,0,0.846-0.063,1.215-0.189l0.181,0.927
				c-0.45,0.189-0.999,0.279-1.593,0.279c-1.495,0-2.351-0.864-2.351-2.242c0-1.116,0.693-2.35,2.224-2.35
				c1.423,0,1.963,1.107,1.963,2.197c0,0.234-0.027,0.441-0.045,0.54H187.261z M188.873,41.455c0-0.333-0.145-0.892-0.773-0.892
				c-0.576,0-0.811,0.531-0.848,0.892H188.873z"/>
			<path fill="#FFFFFF" d="M190.951,42.967c0.252,0.153,0.774,0.324,1.18,0.324c0.414,0,0.585-0.135,0.585-0.36
				c0-0.234-0.136-0.342-0.64-0.513c-0.918-0.306-1.27-0.801-1.26-1.324c0-0.828,0.702-1.449,1.791-1.449
				c0.514,0,0.964,0.126,1.234,0.261l-0.234,0.945c-0.198-0.108-0.586-0.252-0.955-0.252c-0.332,0-0.521,0.135-0.521,0.351
				c0,0.216,0.171,0.324,0.711,0.513c0.838,0.288,1.18,0.72,1.188,1.359c0,0.828-0.64,1.432-1.899,1.432
				c-0.576,0-1.09-0.135-1.423-0.315L190.951,42.967z"/>
			<path fill="#FFFFFF" d="M196.279,38.529c0,0.378-0.279,0.684-0.738,0.684c-0.432,0-0.711-0.306-0.711-0.684
				c0-0.387,0.288-0.685,0.729-0.685C196,37.844,196.27,38.142,196.279,38.529z M194.866,44.155v-4.402h1.368v4.402H194.866z"/>
			<path fill="#FFFFFF" d="M201.5,43.516c0,0.846-0.171,1.54-0.676,1.98c-0.477,0.414-1.134,0.54-1.781,0.54
				c-0.586,0-1.189-0.117-1.585-0.333l0.271-1.044c0.279,0.162,0.756,0.333,1.277,0.333c0.648,0,1.145-0.342,1.145-1.162v-0.279
				h-0.019c-0.261,0.36-0.685,0.567-1.188,0.567c-1.09,0-1.863-0.882-1.863-2.143c0-1.422,0.909-2.323,1.998-2.323
				c0.604,0,0.981,0.261,1.207,0.63h0.018l0.045-0.531h1.188c-0.019,0.288-0.036,0.657-0.036,1.314V43.516z M200.131,41.544
				c0-0.081-0.009-0.171-0.027-0.252c-0.099-0.36-0.36-0.603-0.737-0.603c-0.505,0-0.9,0.45-0.9,1.251
				c0,0.657,0.324,1.17,0.891,1.17c0.36,0,0.639-0.234,0.729-0.549c0.036-0.108,0.045-0.252,0.045-0.369V41.544z"/>
			<path fill="#FFFFFF" d="M202.597,41.157c0-0.549-0.019-1.008-0.037-1.404h1.189l0.062,0.612h0.027
				c0.18-0.288,0.621-0.711,1.359-0.711c0.9,0,1.575,0.604,1.575,1.9v2.602h-1.368v-2.44c0-0.567-0.198-0.954-0.693-0.954
				c-0.379,0-0.604,0.261-0.703,0.513c-0.035,0.09-0.045,0.216-0.045,0.342v2.539h-1.367V41.157z"/>
			<path fill="#FFFFFF" d="M207.861,42.967c0.252,0.153,0.775,0.324,1.18,0.324c0.414,0,0.586-0.135,0.586-0.36
				c0-0.234-0.136-0.342-0.64-0.513c-0.919-0.306-1.27-0.801-1.261-1.324c0-0.828,0.703-1.449,1.792-1.449
				c0.513,0,0.964,0.126,1.233,0.261l-0.234,0.945c-0.197-0.108-0.585-0.252-0.954-0.252c-0.333,0-0.522,0.135-0.522,0.351
				c0,0.216,0.172,0.324,0.711,0.513c0.838,0.288,1.18,0.72,1.189,1.359c0,0.828-0.64,1.432-1.9,1.432
				c-0.576,0-1.089-0.135-1.422-0.315L207.861,42.967z"/>
		</g>
	</g>
	<g>
		<g>
			<rect x="81.191" y="35.083" fill="#404041" width="62.661" height="1.5"/>
		</g>
		<g>
			<g>
				<polygon fill="#404041" points="139.639,41.388 142,35.833 139.639,30.279 152.807,35.833 				"/>
			</g>
		</g>
	</g>
	<g>
		<g>
			<g>
				<circle fill="#EE4137" cx="195.545" cy="181.036" r="35.833"/>
			</g>
		</g>
		<g>
			<path fill="#FFFFFF" d="M188.224,172.49v3.483c0,1.054,0.405,1.585,1.099,1.585c0.72,0,1.116-0.504,1.116-1.585v-3.483h1.369
				v3.402c0,1.873-0.945,2.764-2.53,2.764c-1.53,0-2.422-0.855-2.422-2.781v-3.385H188.224z"/>
			<path fill="#FFFFFF" d="M192.823,177.369c0.253,0.153,0.774,0.324,1.18,0.324c0.414,0,0.585-0.135,0.585-0.359
				c0-0.234-0.135-0.343-0.639-0.514c-0.919-0.307-1.27-0.801-1.261-1.324c0-0.828,0.702-1.449,1.792-1.449
				c0.513,0,0.963,0.127,1.232,0.262l-0.234,0.945c-0.197-0.108-0.584-0.252-0.953-0.252c-0.334,0-0.522,0.135-0.522,0.351
				s0.171,0.324,0.711,0.513c0.837,0.289,1.179,0.721,1.188,1.359c0,0.828-0.639,1.432-1.899,1.432
				c-0.576,0-1.089-0.135-1.423-0.314L192.823,177.369z"/>
			<path fill="#FFFFFF" d="M197.791,176.793c0.037,0.567,0.604,0.838,1.242,0.838c0.469,0,0.847-0.063,1.216-0.189l0.181,0.928
				c-0.451,0.188-1,0.278-1.594,0.278c-1.494,0-2.35-0.864-2.35-2.241c0-1.117,0.693-2.35,2.223-2.35
				c1.424,0,1.963,1.107,1.963,2.196c0,0.233-0.026,0.44-0.045,0.54H197.791z M199.402,175.857c0-0.334-0.144-0.893-0.773-0.893
				c-0.576,0-0.811,0.531-0.847,0.893H199.402z"/>
			<path fill="#FFFFFF" d="M201.49,175.605c0-0.648-0.01-1.072-0.036-1.45h1.171l0.053,0.81h0.037
				c0.225-0.647,0.756-0.918,1.188-0.918c0.127,0,0.189,0.01,0.289,0.027v1.287c-0.108-0.018-0.217-0.035-0.369-0.035
				c-0.504,0-0.847,0.27-0.938,0.693c-0.018,0.09-0.026,0.197-0.026,0.305v2.233h-1.368V175.605z"/>
			<path fill="#FFFFFF" d="M182.5,184.441h-1.638v-1.152h4.663v1.152h-1.656v4.916H182.5V184.441z"/>
			<path fill="#FFFFFF" d="M186.533,187.593c0.035,0.567,0.603,0.837,1.242,0.837c0.468,0,0.846-0.062,1.215-0.188l0.18,0.927
				c-0.449,0.189-0.998,0.279-1.593,0.279c-1.495,0-2.351-0.864-2.351-2.242c0-1.115,0.693-2.35,2.225-2.35
				c1.422,0,1.963,1.107,1.963,2.197c0,0.234-0.027,0.441-0.045,0.54H186.533z M188.144,186.656c0-0.332-0.145-0.891-0.774-0.891
				c-0.576,0-0.811,0.531-0.847,0.891H188.144z"/>
			<path fill="#FFFFFF" d="M190.222,188.169c0.252,0.153,0.773,0.324,1.18,0.324c0.414,0,0.584-0.136,0.584-0.36
				c0-0.234-0.135-0.342-0.639-0.513c-0.918-0.306-1.27-0.802-1.26-1.323c0-0.828,0.701-1.449,1.791-1.449
				c0.514,0,0.963,0.125,1.233,0.26l-0.234,0.945c-0.198-0.107-0.585-0.252-0.954-0.252c-0.333,0-0.521,0.136-0.521,0.352
				c0,0.217,0.17,0.324,0.711,0.514c0.837,0.287,1.179,0.72,1.188,1.359c0,0.828-0.639,1.432-1.898,1.432
				c-0.576,0-1.09-0.136-1.424-0.316L190.222,188.169z"/>
			<path fill="#FFFFFF" d="M195.667,183.767v1.188h0.98v1.008h-0.98v1.594c0,0.531,0.135,0.774,0.539,0.774
				c0.189,0,0.279-0.009,0.406-0.036l0.008,1.035c-0.17,0.063-0.504,0.117-0.881,0.117c-0.441,0-0.811-0.152-1.036-0.378
				c-0.252-0.261-0.378-0.685-0.378-1.306v-1.801h-0.586v-1.008h0.586v-0.819L195.667,183.767z"/>
			<path fill="#FFFFFF" d="M198.853,183.73c0,0.379-0.279,0.685-0.738,0.685c-0.432,0-0.711-0.306-0.711-0.685
				c0-0.387,0.287-0.684,0.729-0.684S198.843,183.344,198.853,183.73z M197.439,189.357v-4.402h1.369v4.402H197.439z"/>
			<path fill="#FFFFFF" d="M199.906,186.359c0-0.549-0.019-1.008-0.037-1.404h1.189l0.062,0.612h0.027
				c0.18-0.288,0.621-0.712,1.359-0.712c0.9,0,1.575,0.604,1.575,1.9v2.602h-1.368v-2.439c0-0.567-0.198-0.955-0.693-0.955
				c-0.379,0-0.604,0.262-0.703,0.514c-0.035,0.09-0.045,0.217-0.045,0.342v2.539h-1.367V186.359z"/>
			<path fill="#FFFFFF" d="M209.347,188.719c0,0.846-0.171,1.539-0.676,1.98c-0.477,0.414-1.134,0.539-1.781,0.539
				c-0.586,0-1.189-0.116-1.585-0.332l0.271-1.045c0.279,0.162,0.756,0.334,1.277,0.334c0.648,0,1.145-0.343,1.145-1.162v-0.279
				h-0.019c-0.261,0.36-0.685,0.567-1.188,0.567c-1.09,0-1.863-0.882-1.863-2.143c0-1.423,0.909-2.323,1.998-2.323
				c0.604,0,0.981,0.262,1.207,0.631h0.018l0.045-0.531h1.188c-0.019,0.288-0.036,0.657-0.036,1.314V188.719z M207.979,186.746
				c0-0.08-0.009-0.17-0.027-0.252c-0.099-0.359-0.36-0.603-0.737-0.603c-0.505,0-0.9,0.45-0.9,1.251c0,0.657,0.324,1.17,0.891,1.17
				c0.36,0,0.639-0.233,0.729-0.549c0.036-0.107,0.045-0.252,0.045-0.369V186.746z"/>
		</g>
	</g>
	<g>
		<g>
			<g>
				<circle fill="#EE4137" cx="37.22" cy="181.036" r="35.833"/>
			</g>
		</g>
		<g>
			<path fill="#FFFFFF" d="M29.647,172.49v2.331h2.26v-2.331h1.368v6.067h-1.368v-2.538h-2.26v2.538h-1.369v-6.067H29.647z"/>
			<path fill="#FFFFFF" d="M35.866,172.932c0,0.377-0.279,0.684-0.738,0.684c-0.432,0-0.711-0.307-0.711-0.684
				c0-0.388,0.288-0.686,0.729-0.686C35.587,172.246,35.857,172.544,35.866,172.932z M34.453,178.558v-4.402h1.368v4.402H34.453z"/>
			<path fill="#FFFFFF" d="M38.999,175.74v0.908H36.64v-0.908H38.999z"/>
			<path fill="#FFFFFF" d="M39.871,172.49h3.7v1.125h-2.332v1.387h2.179v1.115h-2.179v2.44h-1.369V172.49z"/>
			<path fill="#FFFFFF" d="M45.793,172.932c0,0.377-0.279,0.684-0.738,0.684c-0.433,0-0.711-0.307-0.711-0.684
				c0-0.388,0.288-0.686,0.729-0.686C45.515,172.246,45.785,172.544,45.793,172.932z M44.38,178.558v-4.402h1.368v4.402H44.38z"/>
			<path fill="#FFFFFF" d="M21.664,183.379c0.504-0.08,1.161-0.135,1.846-0.135c1.161,0,1.917,0.217,2.494,0.648
				c0.63,0.469,1.026,1.215,1.026,2.287c0,1.161-0.423,1.963-1,2.457c-0.639,0.531-1.621,0.783-2.809,0.783
				c-0.711,0-1.225-0.045-1.558-0.09V183.379z M23.032,188.322c0.117,0.027,0.315,0.027,0.478,0.027
				c1.251,0.008,2.07-0.676,2.07-2.125c0-1.26-0.738-1.927-1.926-1.927c-0.297,0-0.504,0.026-0.622,0.054V188.322z"/>
			<path fill="#FFFFFF" d="M28.936,187.593c0.036,0.567,0.603,0.837,1.242,0.837c0.468,0,0.846-0.062,1.215-0.188l0.18,0.927
				c-0.45,0.189-1,0.279-1.593,0.279c-1.495,0-2.35-0.864-2.35-2.242c0-1.115,0.693-2.35,2.224-2.35
				c1.422,0,1.962,1.107,1.962,2.197c0,0.234-0.027,0.441-0.045,0.54H28.936z M30.547,186.656c0-0.332-0.144-0.891-0.774-0.891
				c-0.576,0-0.811,0.531-0.847,0.891H30.547z"/>
			<path fill="#FFFFFF" d="M32.625,188.169c0.252,0.153,0.774,0.324,1.18,0.324c0.414,0,0.585-0.136,0.585-0.36
				c0-0.234-0.135-0.342-0.639-0.513c-0.918-0.306-1.27-0.802-1.26-1.323c0-0.828,0.702-1.449,1.792-1.449
				c0.513,0,0.963,0.125,1.233,0.26l-0.234,0.945c-0.198-0.107-0.585-0.252-0.954-0.252c-0.333,0-0.522,0.136-0.522,0.352
				c0,0.217,0.171,0.324,0.711,0.514c0.837,0.287,1.179,0.72,1.188,1.359c0,0.828-0.639,1.432-1.899,1.432
				c-0.576,0-1.089-0.136-1.423-0.316L32.625,188.169z"/>
			<path fill="#FFFFFF" d="M37.954,183.73c0,0.379-0.279,0.685-0.738,0.685c-0.433,0-0.711-0.306-0.711-0.685
				c0-0.387,0.288-0.684,0.729-0.684C37.675,183.047,37.945,183.344,37.954,183.73z M36.541,189.357v-4.402h1.368v4.402H36.541z"/>
			<path fill="#FFFFFF" d="M43.174,188.719c0,0.846-0.171,1.539-0.675,1.98c-0.477,0.414-1.134,0.539-1.782,0.539
				c-0.585,0-1.188-0.116-1.584-0.332l0.27-1.045c0.279,0.162,0.756,0.334,1.278,0.334c0.648,0,1.144-0.343,1.144-1.162v-0.279
				h-0.018c-0.261,0.36-0.684,0.567-1.188,0.567c-1.089,0-1.864-0.882-1.864-2.143c0-1.423,0.91-2.323,1.999-2.323
				c0.603,0,0.981,0.262,1.206,0.631h0.018l0.045-0.531h1.188c-0.018,0.288-0.036,0.657-0.036,1.314V188.719z M41.806,186.746
				c0-0.08-0.009-0.17-0.027-0.252c-0.099-0.359-0.36-0.603-0.738-0.603c-0.504,0-0.9,0.45-0.9,1.251c0,0.657,0.324,1.17,0.891,1.17
				c0.36,0,0.639-0.233,0.729-0.549c0.036-0.107,0.045-0.252,0.045-0.369V186.746z"/>
			<path fill="#FFFFFF" d="M44.271,186.359c0-0.549-0.018-1.008-0.036-1.404h1.188l0.063,0.612h0.027
				c0.18-0.288,0.621-0.712,1.359-0.712c0.9,0,1.576,0.604,1.576,1.9v2.602H47.08v-2.439c0-0.567-0.198-0.955-0.693-0.955
				c-0.378,0-0.603,0.262-0.702,0.514c-0.036,0.09-0.045,0.217-0.045,0.342v2.539h-1.368V186.359z"/>
			<path fill="#FFFFFF" d="M49.536,188.169c0.252,0.153,0.774,0.324,1.18,0.324c0.414,0,0.585-0.136,0.585-0.36
				c0-0.234-0.135-0.342-0.639-0.513c-0.918-0.306-1.27-0.802-1.26-1.323c0-0.828,0.702-1.449,1.792-1.449
				c0.513,0,0.963,0.125,1.233,0.26l-0.234,0.945c-0.198-0.107-0.585-0.252-0.954-0.252c-0.333,0-0.522,0.136-0.522,0.352
				c0,0.217,0.171,0.324,0.711,0.514c0.837,0.287,1.179,0.72,1.188,1.359c0,0.828-0.639,1.432-1.899,1.432
				c-0.576,0-1.089-0.136-1.423-0.316L49.536,188.169z"/>
		</g>
	</g>
	<g>
		<g>
			<g>
				<path fill="#404041" d="M113.754,202.857c-26.333,0-32.033-13.957-32.263-14.551l1.399-0.541l-0.7,0.271l0.699-0.272
					c0.053,0.136,5.636,13.594,30.865,13.594c14.532,0,24.315-4.426,29.964-8.14l0.824,1.254
					C138.723,198.297,128.658,202.857,113.754,202.857z"/>
			</g>
			<g>
				<g>
					<polygon fill="#404041" points="144.24,200.653 142.566,194.854 137.231,192.033 150.952,188.036 					"/>
				</g>
			</g>
		</g>
		<g>
			<g>
				<path fill="#404041" d="M150.252,174.308c-0.053-0.136-5.635-13.594-30.864-13.594c-14.532,0-24.315,4.426-29.963,8.14
					l-0.824-1.254c5.819-3.825,15.885-8.386,30.788-8.386c26.333,0,32.033,13.957,32.263,14.551l-1.398,0.541l0.699-0.271
					L150.252,174.308z"/>
			</g>
			<g>
				<polygon fill="#404041" points="88.903,161.419 90.577,167.217 95.912,170.038 82.191,174.035 				"/>
			</g>
		</g>
	</g>
	<g>
		<g>
			<g>
				<circle fill="#EE4137" cx="37.22" cy="324.501" r="35.833"/>
			</g>
		</g>
		<g>
			<path fill="#FFFFFF" d="M9.492,311.036c0.441-0.072,1.089-0.127,1.828-0.127c0.9,0,1.53,0.135,1.962,0.478
				c0.369,0.288,0.567,0.72,0.567,1.278c0,0.766-0.549,1.297-1.071,1.485v0.027c0.423,0.171,0.657,0.567,0.81,1.125
				c0.189,0.693,0.369,1.485,0.486,1.72H12.67c-0.09-0.18-0.243-0.666-0.414-1.414c-0.171-0.765-0.432-0.963-0.999-0.972h-0.405
				v2.386H9.492V311.036z M10.852,313.646h0.54c0.684,0,1.089-0.343,1.089-0.874c0-0.549-0.378-0.836-1.008-0.836
				c-0.333,0-0.522,0.018-0.621,0.045V313.646z"/>
			<path fill="#FFFFFF" d="M15.837,315.258c0.036,0.567,0.603,0.837,1.242,0.837c0.468,0,0.846-0.062,1.215-0.188l0.18,0.927
				c-0.45,0.189-0.999,0.279-1.593,0.279c-1.495,0-2.35-0.864-2.35-2.242c0-1.115,0.693-2.35,2.224-2.35
				c1.423,0,1.963,1.107,1.963,2.197c0,0.234-0.027,0.441-0.045,0.54H15.837z M17.449,314.321c0-0.332-0.144-0.891-0.774-0.891
				c-0.576,0-0.811,0.531-0.847,0.891H17.449z"/>
			<path fill="#FFFFFF" d="M22.435,316.464h-0.018c-0.279,0.424-0.72,0.658-1.314,0.658c-0.955,0-1.819-0.847-1.819-2.242
				c0-1.584,1-2.367,1.945-2.367c0.567,0,0.981,0.207,1.233,0.621l0.018,0.008l0.036-0.521h1.314
				c-0.009,0.432-0.027,0.864-0.027,1.323v4.862h-1.368V316.464z M22.435,314.466c0-0.081-0.009-0.153-0.027-0.225
				c-0.072-0.352-0.369-0.658-0.792-0.658c-0.621,0-0.945,0.531-0.945,1.242c0,0.73,0.36,1.216,0.936,1.216
				c0.387,0,0.702-0.261,0.792-0.621c0.027-0.09,0.036-0.207,0.036-0.297V314.466z"/>
			<path fill="#FFFFFF" d="M29.041,315.608c0,0.576,0.018,1.045,0.036,1.414h-1.188l-0.063-0.621h-0.027
				c-0.171,0.27-0.585,0.721-1.377,0.721c-0.9,0-1.548-0.559-1.548-1.918v-2.584h1.368v2.367c0,0.64,0.207,1.027,0.693,1.027
				c0.378,0,0.603-0.262,0.684-0.478c0.036-0.081,0.054-0.181,0.054-0.298v-2.619h1.368V315.608z"/>
			<path fill="#FFFFFF" d="M31.551,311.396c0,0.379-0.279,0.685-0.738,0.685c-0.432,0-0.711-0.306-0.711-0.685
				c0-0.387,0.288-0.684,0.729-0.684C31.272,310.712,31.542,311.009,31.551,311.396z M30.138,317.022v-4.402h1.368v4.402H30.138z"/>
			<path fill="#FFFFFF" d="M32.604,314.069c0-0.648-0.009-1.071-0.036-1.449h1.17l0.054,0.811h0.036
				c0.225-0.648,0.756-0.918,1.188-0.918c0.126,0,0.189,0.008,0.288,0.026v1.288c-0.108-0.019-0.216-0.037-0.369-0.037
				c-0.504,0-0.846,0.271-0.936,0.693c-0.018,0.09-0.027,0.198-0.027,0.307v2.232h-1.368V314.069z"/>
			<path fill="#FFFFFF" d="M37.005,315.258c0.036,0.567,0.603,0.837,1.242,0.837c0.468,0,0.846-0.062,1.215-0.188l0.18,0.927
				c-0.45,0.189-0.999,0.279-1.593,0.279c-1.495,0-2.35-0.864-2.35-2.242c0-1.115,0.693-2.35,2.224-2.35
				c1.423,0,1.963,1.107,1.963,2.197c0,0.234-0.027,0.441-0.045,0.54H37.005z M38.617,314.321c0-0.332-0.144-0.891-0.774-0.891
				c-0.576,0-0.811,0.531-0.847,0.891H38.617z"/>
			<path fill="#FFFFFF" d="M40.704,314.024c0-0.549-0.018-1.008-0.036-1.404h1.161l0.054,0.594h0.027
				c0.189-0.287,0.585-0.701,1.333-0.701c0.576,0,1.018,0.297,1.207,0.756h0.018c0.171-0.234,0.36-0.414,0.576-0.541
				c0.243-0.135,0.513-0.215,0.837-0.215c0.846,0,1.485,0.594,1.485,1.917v2.593h-1.332v-2.395c0-0.639-0.207-1.008-0.648-1.008
				c-0.324,0-0.54,0.215-0.639,0.477c-0.027,0.1-0.045,0.234-0.045,0.352v2.574h-1.333v-2.476c0-0.55-0.198-0.927-0.639-0.927
				c-0.351,0-0.558,0.27-0.639,0.485c-0.045,0.108-0.054,0.234-0.054,0.351v2.566h-1.332V314.024z"/>
			<path fill="#FFFFFF" d="M49.497,315.258c0.036,0.567,0.603,0.837,1.242,0.837c0.468,0,0.846-0.062,1.215-0.188l0.18,0.927
				c-0.45,0.189-1,0.279-1.593,0.279c-1.495,0-2.35-0.864-2.35-2.242c0-1.115,0.693-2.35,2.224-2.35
				c1.422,0,1.962,1.107,1.962,2.197c0,0.234-0.027,0.441-0.045,0.54H49.497z M51.108,314.321c0-0.332-0.144-0.891-0.774-0.891
				c-0.576,0-0.811,0.531-0.847,0.891H51.108z"/>
			<path fill="#FFFFFF" d="M53.196,314.024c0-0.549-0.018-1.008-0.036-1.404h1.188l0.063,0.612h0.027
				c0.18-0.288,0.621-0.712,1.359-0.712c0.9,0,1.576,0.604,1.576,1.9v2.602h-1.369v-2.439c0-0.567-0.198-0.955-0.693-0.955
				c-0.378,0-0.603,0.262-0.702,0.514c-0.036,0.09-0.045,0.217-0.045,0.342v2.539h-1.368V314.024z"/>
			<path fill="#FFFFFF" d="M59.946,311.432v1.188h0.981v1.008h-0.981v1.594c0,0.531,0.135,0.774,0.54,0.774
				c0.189,0,0.279-0.009,0.405-0.036l0.009,1.035c-0.171,0.063-0.504,0.117-0.882,0.117c-0.441,0-0.811-0.152-1.036-0.378
				c-0.252-0.261-0.378-0.685-0.378-1.306v-1.801h-0.585v-1.008h0.585v-0.819L59.946,311.432z"/>
			<path fill="#FFFFFF" d="M61.709,315.834c0.252,0.153,0.774,0.324,1.18,0.324c0.414,0,0.585-0.136,0.585-0.36
				c0-0.234-0.135-0.342-0.639-0.513c-0.918-0.306-1.27-0.802-1.26-1.323c0-0.828,0.702-1.449,1.792-1.449
				c0.513,0,0.963,0.125,1.233,0.26l-0.234,0.945c-0.198-0.107-0.585-0.252-0.954-0.252c-0.333,0-0.522,0.136-0.522,0.352
				c0,0.217,0.171,0.324,0.711,0.514c0.837,0.287,1.179,0.72,1.188,1.359c0,0.828-0.639,1.432-1.899,1.432
				c-0.576,0-1.089-0.136-1.423-0.316L61.709,315.834z"/>
			<path fill="#FFFFFF" d="M38.392,327.822c-0.126-0.136-0.252-0.271-0.396-0.433c-0.396,0.307-0.945,0.531-1.666,0.531
				c-1.467,0-2.115-0.863-2.115-1.719c0-0.802,0.459-1.378,1.152-1.747v-0.026c-0.261-0.297-0.468-0.738-0.468-1.18
				c0-0.766,0.612-1.603,1.836-1.603c0.937,0,1.639,0.55,1.639,1.423c0,0.611-0.36,1.143-1.198,1.557l-0.009,0.036
				c0.351,0.396,0.72,0.837,1.018,1.144c0.243-0.387,0.432-0.945,0.513-1.485h1.225c-0.162,0.927-0.468,1.71-1.008,2.305
				c0.342,0.396,0.693,0.792,1.071,1.197H38.392z M37.356,326.625c-0.369-0.369-0.864-0.937-1.368-1.495
				c-0.252,0.189-0.477,0.451-0.477,0.847c0,0.522,0.387,0.954,1.026,0.954C36.879,326.931,37.176,326.796,37.356,326.625z
				 M36.672,322.501c-0.351,0-0.54,0.307-0.54,0.622c0,0.306,0.135,0.576,0.423,0.873c0.441-0.297,0.657-0.54,0.657-0.892
				c0-0.287-0.171-0.604-0.522-0.604H36.672z"/>
			<path fill="#FFFFFF" d="M10.374,332.646c0.504-0.082,1.161-0.136,1.846-0.136c1.161,0,1.917,0.216,2.494,0.647
				c0.63,0.469,1.026,1.217,1.026,2.287c0,1.162-0.423,1.963-1,2.458c-0.639,0.531-1.621,0.783-2.809,0.783
				c-0.711,0-1.225-0.045-1.558-0.09V332.646z M11.742,337.587c0.117,0.027,0.315,0.027,0.478,0.027
				c1.251,0.009,2.07-0.676,2.07-2.125c0-1.26-0.738-1.926-1.926-1.926c-0.297,0-0.504,0.026-0.622,0.054V337.587z"/>
			<path fill="#FFFFFF" d="M17.646,336.858c0.036,0.566,0.603,0.837,1.242,0.837c0.468,0,0.846-0.063,1.215-0.188l0.18,0.927
				c-0.45,0.188-0.999,0.278-1.593,0.278c-1.495,0-2.35-0.863-2.35-2.241c0-1.116,0.693-2.35,2.224-2.35
				c1.423,0,1.963,1.107,1.963,2.196c0,0.234-0.027,0.441-0.045,0.541H17.646z M19.257,335.922c0-0.333-0.144-0.892-0.774-0.892
				c-0.576,0-0.811,0.531-0.847,0.892H19.257z"/>
			<path fill="#FFFFFF" d="M22.308,334.22l0.594,2.044c0.108,0.378,0.18,0.72,0.252,1.071h0.027
				c0.072-0.359,0.144-0.693,0.243-1.071l0.567-2.044h1.44l-1.639,4.402h-1.368l-1.603-4.402H22.308z"/>
			<path fill="#FFFFFF" d="M26.979,336.858c0.036,0.566,0.603,0.837,1.242,0.837c0.468,0,0.846-0.063,1.215-0.188l0.18,0.927
				c-0.45,0.188-0.999,0.278-1.593,0.278c-1.495,0-2.35-0.863-2.35-2.241c0-1.116,0.693-2.35,2.224-2.35
				c1.423,0,1.963,1.107,1.963,2.196c0,0.234-0.027,0.441-0.045,0.541H26.979z M28.59,335.922c0-0.333-0.144-0.892-0.774-0.892
				c-0.576,0-0.811,0.531-0.847,0.892H28.59z"/>
			<path fill="#FFFFFF" d="M30.678,332.23h1.368v6.392h-1.368V332.23z"/>
			<path fill="#FFFFFF" d="M37.501,336.372c0,1.611-1.144,2.35-2.323,2.35c-1.287,0-2.278-0.846-2.278-2.269
				c0-1.432,0.937-2.341,2.359-2.341C36.601,334.112,37.501,335.04,37.501,336.372z M34.314,336.417c0,0.756,0.315,1.323,0.9,1.323
				c0.54,0,0.873-0.531,0.873-1.333c0-0.647-0.252-1.314-0.873-1.314C34.566,335.093,34.314,335.769,34.314,336.417z"/>
			<path fill="#FFFFFF" d="M38.346,335.696c0-0.576-0.018-1.062-0.036-1.477h1.188l0.063,0.613h0.018
				c0.324-0.459,0.828-0.712,1.467-0.712c0.963,0,1.828,0.837,1.828,2.241c0,1.604-1.018,2.359-1.999,2.359
				c-0.531,0-0.945-0.217-1.144-0.504h-0.018v2.188h-1.368V335.696z M39.714,336.731c0,0.108,0.009,0.199,0.027,0.289
				c0.09,0.369,0.405,0.648,0.801,0.648c0.594,0,0.945-0.496,0.945-1.243c0-0.702-0.315-1.233-0.927-1.233
				c-0.387,0-0.729,0.288-0.819,0.693c-0.018,0.072-0.027,0.162-0.027,0.243V336.731z"/>
			<path fill="#FFFFFF" d="M43.728,335.624c0-0.549-0.018-1.008-0.036-1.404h1.161l0.054,0.595h0.027
				c0.189-0.288,0.585-0.702,1.333-0.702c0.576,0,1.018,0.297,1.207,0.756h0.018c0.171-0.234,0.36-0.414,0.576-0.54
				c0.243-0.135,0.513-0.216,0.837-0.216c0.846,0,1.485,0.594,1.485,1.918v2.592h-1.332v-2.395c0-0.639-0.207-1.008-0.648-1.008
				c-0.324,0-0.54,0.216-0.639,0.477c-0.027,0.1-0.045,0.234-0.045,0.352v2.574h-1.333v-2.475c0-0.55-0.198-0.928-0.639-0.928
				c-0.351,0-0.558,0.27-0.639,0.486c-0.045,0.107-0.054,0.234-0.054,0.351v2.565h-1.332V335.624z"/>
			<path fill="#FFFFFF" d="M52.521,336.858c0.036,0.566,0.603,0.837,1.242,0.837c0.468,0,0.846-0.063,1.215-0.188l0.18,0.927
				c-0.45,0.188-1,0.278-1.593,0.278c-1.495,0-2.35-0.863-2.35-2.241c0-1.116,0.693-2.35,2.224-2.35
				c1.422,0,1.962,1.107,1.962,2.196c0,0.234-0.027,0.441-0.045,0.541H52.521z M54.132,335.922c0-0.333-0.144-0.892-0.774-0.892
				c-0.576,0-0.811,0.531-0.847,0.892H54.132z"/>
			<path fill="#FFFFFF" d="M56.219,335.624c0-0.549-0.018-1.008-0.036-1.404h1.188l0.063,0.613h0.027
				c0.18-0.289,0.621-0.712,1.359-0.712c0.9,0,1.576,0.604,1.576,1.899v2.602h-1.369v-2.439c0-0.566-0.198-0.954-0.693-0.954
				c-0.378,0-0.603,0.261-0.702,0.513c-0.036,0.09-0.045,0.217-0.045,0.343v2.538h-1.368V335.624z"/>
			<path fill="#FFFFFF" d="M62.969,333.032v1.188h0.981v1.009h-0.981v1.593c0,0.531,0.135,0.775,0.54,0.775
				c0.189,0,0.279-0.01,0.405-0.037l0.009,1.036c-0.171,0.063-0.504,0.116-0.882,0.116c-0.441,0-0.811-0.152-1.036-0.377
				c-0.252-0.262-0.378-0.685-0.378-1.306v-1.801h-0.585v-1.009h0.585v-0.818L62.969,333.032z"/>
		</g>
	</g>
	<g>
		<g>
			<g>
				<circle fill="#EE4137" cx="195.545" cy="324.501" r="35.833"/>
			</g>
		</g>
		<g>
			<path fill="#FFFFFF" d="M194.084,318.067c-0.864-0.252-1.585-0.523-2.403-0.855c-0.135-0.055-0.279-0.082-0.414-0.09
				c-1.378-0.091-2.656-1.1-2.656-3.088c0-1.828,1.152-3.188,2.971-3.188c1.846,0,2.863,1.404,2.863,3.07
				c0,1.377-0.639,2.35-1.432,2.709v0.037c0.459,0.135,0.981,0.252,1.459,0.342L194.084,318.067z M192.996,313.971
				c0-1.116-0.522-2.034-1.459-2.034c-0.936,0-1.477,0.918-1.477,2.061c0,1.152,0.549,2.035,1.477,2.035
				S192.996,315.159,192.996,313.971z"/>
			<path fill="#FFFFFF" d="M196.613,315.465l-0.432,1.558h-1.414l1.846-6.068h1.801l1.891,6.068h-1.486l-0.468-1.558H196.613z
				 M198.152,314.438l-0.378-1.287c-0.108-0.36-0.216-0.811-0.306-1.17h-0.019c-0.09,0.359-0.18,0.818-0.278,1.17l-0.361,1.287
				H198.152z"/>
			<path fill="#FFFFFF" d="M195.808,327.822c-0.127-0.136-0.252-0.271-0.396-0.433c-0.396,0.307-0.945,0.531-1.666,0.531
				c-1.467,0-2.115-0.863-2.115-1.719c0-0.802,0.459-1.378,1.152-1.747v-0.026c-0.261-0.297-0.468-0.738-0.468-1.18
				c0-0.766,0.612-1.603,1.837-1.603c0.936,0,1.639,0.55,1.639,1.423c0,0.611-0.361,1.143-1.198,1.557l-0.009,0.036
				c0.352,0.396,0.721,0.837,1.018,1.144c0.242-0.387,0.432-0.945,0.513-1.485h1.225c-0.162,0.927-0.468,1.71-1.009,2.305
				c0.343,0.396,0.693,0.792,1.072,1.197H195.808z M194.773,326.625c-0.369-0.369-0.865-0.937-1.369-1.495
				c-0.252,0.189-0.477,0.451-0.477,0.847c0,0.522,0.387,0.954,1.025,0.954C194.295,326.931,194.592,326.796,194.773,326.625z
				 M194.088,322.501c-0.351,0-0.54,0.307-0.54,0.622c0,0.306,0.135,0.576,0.423,0.873c0.441-0.297,0.657-0.54,0.657-0.892
				c0-0.287-0.171-0.604-0.521-0.604H194.088z"/>
			<path fill="#FFFFFF" d="M172.907,332.555v3.483c0,1.055,0.405,1.585,1.099,1.585c0.721,0,1.116-0.504,1.116-1.585v-3.483h1.368
				v3.403c0,1.873-0.945,2.764-2.529,2.764c-1.531,0-2.422-0.855-2.422-2.781v-3.386H172.907z"/>
			<path fill="#FFFFFF" d="M177.505,337.435c0.252,0.152,0.774,0.324,1.18,0.324c0.414,0,0.585-0.136,0.585-0.361
				c0-0.233-0.136-0.342-0.64-0.512c-0.918-0.307-1.27-0.802-1.26-1.324c0-0.828,0.702-1.449,1.791-1.449
				c0.514,0,0.964,0.126,1.234,0.262l-0.234,0.944c-0.198-0.108-0.586-0.252-0.955-0.252c-0.332,0-0.521,0.136-0.521,0.351
				c0,0.217,0.171,0.324,0.711,0.514c0.838,0.288,1.18,0.721,1.188,1.359c0,0.828-0.64,1.432-1.899,1.432
				c-0.576,0-1.09-0.135-1.423-0.314L177.505,337.435z"/>
			<path fill="#FFFFFF" d="M182.474,336.858c0.035,0.566,0.603,0.837,1.242,0.837c0.468,0,0.846-0.063,1.215-0.188l0.18,0.927
				c-0.449,0.188-0.999,0.278-1.593,0.278c-1.495,0-2.351-0.863-2.351-2.241c0-1.116,0.693-2.35,2.225-2.35
				c1.422,0,1.963,1.107,1.963,2.196c0,0.234-0.027,0.441-0.045,0.541H182.474z M184.085,335.922c0-0.333-0.145-0.892-0.774-0.892
				c-0.576,0-0.811,0.531-0.847,0.892H184.085z"/>
			<path fill="#FFFFFF" d="M186.172,335.669c0-0.647-0.009-1.07-0.036-1.449h1.17l0.055,0.811h0.035
				c0.226-0.648,0.757-0.918,1.189-0.918c0.125,0,0.188,0.009,0.287,0.027v1.287c-0.107-0.018-0.216-0.036-0.369-0.036
				c-0.504,0-0.846,0.271-0.936,0.693c-0.018,0.09-0.027,0.198-0.027,0.306v2.232h-1.368V335.669z"/>
			<path fill="#FFFFFF" d="M192.283,333.707h-1.638v-1.152h4.663v1.152h-1.656v4.915h-1.369V333.707z"/>
			<path fill="#FFFFFF" d="M196.316,336.858c0.035,0.566,0.603,0.837,1.242,0.837c0.468,0,0.846-0.063,1.215-0.188l0.18,0.927
				c-0.449,0.188-0.999,0.278-1.593,0.278c-1.495,0-2.351-0.863-2.351-2.241c0-1.116,0.693-2.35,2.225-2.35
				c1.422,0,1.963,1.107,1.963,2.196c0,0.234-0.027,0.441-0.045,0.541H196.316z M197.927,335.922c0-0.333-0.145-0.892-0.774-0.892
				c-0.576,0-0.811,0.531-0.847,0.892H197.927z"/>
			<path fill="#FFFFFF" d="M200.005,337.435c0.252,0.152,0.773,0.324,1.18,0.324c0.414,0,0.584-0.136,0.584-0.361
				c0-0.233-0.135-0.342-0.639-0.512c-0.918-0.307-1.27-0.802-1.26-1.324c0-0.828,0.701-1.449,1.791-1.449
				c0.514,0,0.963,0.126,1.233,0.262l-0.234,0.944c-0.198-0.108-0.585-0.252-0.954-0.252c-0.333,0-0.521,0.136-0.521,0.351
				c0,0.217,0.17,0.324,0.711,0.514c0.837,0.288,1.179,0.721,1.188,1.359c0,0.828-0.639,1.432-1.898,1.432
				c-0.576,0-1.09-0.135-1.424-0.314L200.005,337.435z"/>
			<path fill="#FFFFFF" d="M205.451,333.032v1.188h0.98v1.009h-0.98v1.593c0,0.531,0.135,0.775,0.539,0.775
				c0.189,0,0.279-0.01,0.406-0.037l0.008,1.036c-0.17,0.063-0.504,0.116-0.881,0.116c-0.441,0-0.811-0.152-1.036-0.377
				c-0.252-0.262-0.378-0.685-0.378-1.306v-1.801h-0.586v-1.009h0.586v-0.818L205.451,333.032z"/>
			<path fill="#FFFFFF" d="M208.636,332.996c0,0.378-0.279,0.685-0.738,0.685c-0.433,0-0.711-0.307-0.711-0.685
				c0-0.388,0.287-0.685,0.729-0.685S208.626,332.608,208.636,332.996z M207.222,338.622v-4.402h1.369v4.402H207.222z"/>
			<path fill="#FFFFFF" d="M209.689,335.624c0-0.549-0.019-1.008-0.037-1.404h1.189l0.062,0.613h0.027
				c0.18-0.289,0.621-0.712,1.359-0.712c0.9,0,1.575,0.604,1.575,1.899v2.602h-1.368v-2.439c0-0.566-0.198-0.954-0.693-0.954
				c-0.379,0-0.604,0.261-0.703,0.513c-0.035,0.09-0.045,0.217-0.045,0.343v2.538h-1.367V335.624z"/>
			<path fill="#FFFFFF" d="M219.13,337.983c0,0.846-0.171,1.539-0.676,1.98c-0.477,0.414-1.134,0.54-1.781,0.54
				c-0.586,0-1.189-0.116-1.585-0.333l0.271-1.045c0.278,0.162,0.756,0.334,1.277,0.334c0.648,0,1.145-0.342,1.145-1.162v-0.278
				h-0.019c-0.261,0.36-0.685,0.567-1.188,0.567c-1.09,0-1.863-0.883-1.863-2.143c0-1.423,0.909-2.323,1.998-2.323
				c0.604,0,0.981,0.261,1.207,0.63h0.018l0.045-0.531h1.188c-0.019,0.289-0.036,0.658-0.036,1.314V337.983z M217.762,336.012
				c0-0.081-0.009-0.171-0.027-0.252c-0.099-0.36-0.36-0.603-0.737-0.603c-0.505,0-0.9,0.449-0.9,1.25
				c0,0.658,0.324,1.171,0.891,1.171c0.36,0,0.639-0.233,0.729-0.549c0.036-0.108,0.045-0.253,0.045-0.369V336.012z"/>
		</g>
	</g>
	<g>
		<g>
			<rect x="80.551" y="323.751" fill="#404041" width="64.217" height="1.5"/>
		</g>
		<g>
			<g>
				<polygon fill="#404041" points="140.555,330.056 142.916,324.501 140.555,318.946 153.723,324.501 				"/>
			</g>
		</g>
	</g>
	<g>
		<g>
			<rect x="0.5" y="97.754" fill="#E8E7E7" width="231.86" height="17.5"/>
			<path fill="#A1A0A0" d="M232.86,115.754h-1.719v-1h0.719v-2.281h1V115.754z M229.141,115.754h-4v-1h4V115.754z M223.141,115.754
				h-4v-1h4V115.754z M217.141,115.754h-4v-1h4V115.754z M211.141,115.754h-4v-1h4V115.754z M205.141,115.754h-4v-1h4V115.754z
				 M199.141,115.754h-4v-1h4V115.754z M193.141,115.754h-4v-1h4V115.754z M187.141,115.754h-4v-1h4V115.754z M181.141,115.754h-4
				v-1h4V115.754z M175.141,115.754h-4v-1h4V115.754z M169.141,115.754h-4v-1h4V115.754z M163.141,115.754h-4v-1h4V115.754z
				 M157.141,115.754h-4v-1h4V115.754z M151.141,115.754h-4v-1h4V115.754z M145.141,115.754h-4v-1h4V115.754z M139.141,115.754h-4
				v-1h4V115.754z M133.141,115.754h-4v-1h4V115.754z M127.141,115.754h-4v-1h4V115.754z M121.141,115.754h-4v-1h4V115.754z
				 M115.141,115.754h-4v-1h4V115.754z M109.141,115.754h-4v-1h4V115.754z M103.141,115.754h-4v-1h4V115.754z M97.141,115.754h-4v-1
				h4V115.754z M91.141,115.754h-4v-1h4V115.754z M85.141,115.754h-4v-1h4V115.754z M79.141,115.754h-4v-1h4V115.754z
				 M73.141,115.754h-4v-1h4V115.754z M67.141,115.754h-4v-1h4V115.754z M61.141,115.754h-4v-1h4V115.754z M55.141,115.754h-4v-1h4
				V115.754z M49.141,115.754h-4v-1h4V115.754z M43.141,115.754h-4v-1h4V115.754z M37.141,115.754h-4v-1h4V115.754z M31.141,115.754
				h-4v-1h4V115.754z M25.141,115.754h-4v-1h4V115.754z M19.141,115.754h-4v-1h4V115.754z M13.141,115.754h-4v-1h4V115.754z
				 M7.141,115.754h-4v-1h4V115.754z M1.141,115.754H0v-3.859h1v2.859h0.141V115.754z M232.86,110.473h-1v-4h1V110.473z M1,109.895
				H0v-4h1V109.895z M232.86,104.473h-1v-4h1V104.473z M1,103.895H0v-4h1V103.895z M232.86,98.472h-1v-0.218h-3.5v-1h4.5V98.472z
				 M226.36,98.254h-4v-1h4V98.254z M220.36,98.254h-4v-1h4V98.254z M214.36,98.254h-4v-1h4V98.254z M208.36,98.254h-4v-1h4V98.254z
				 M202.36,98.254h-4v-1h4V98.254z M196.36,98.254h-4v-1h4V98.254z M190.36,98.254h-4v-1h4V98.254z M184.36,98.254h-4v-1h4V98.254z
				 M178.36,98.254h-4v-1h4V98.254z M172.36,98.254h-4v-1h4V98.254z M166.36,98.254h-4v-1h4V98.254z M160.36,98.254h-4v-1h4V98.254z
				 M154.36,98.254h-4v-1h4V98.254z M148.36,98.254h-4v-1h4V98.254z M142.36,98.254h-4v-1h4V98.254z M136.36,98.254h-4v-1h4V98.254z
				 M130.359,98.254h-4v-1h4V98.254z M124.359,98.254h-4v-1h4V98.254z M118.359,98.254h-4v-1h4V98.254z M112.359,98.254h-4v-1h4
				V98.254z M106.359,98.254h-4v-1h4V98.254z M100.359,98.254h-4v-1h4V98.254z M94.359,98.254h-4v-1h4V98.254z M88.359,98.254h-4v-1
				h4V98.254z M82.359,98.254h-4v-1h4V98.254z M76.359,98.254h-4v-1h4V98.254z M70.359,98.254h-4v-1h4V98.254z M64.359,98.254h-4v-1
				h4V98.254z M58.359,98.254h-4v-1h4V98.254z M52.359,98.254h-4v-1h4V98.254z M46.359,98.254h-4v-1h4V98.254z M40.359,98.254h-4v-1
				h4V98.254z M34.359,98.254h-4v-1h4V98.254z M28.359,98.254h-4v-1h4V98.254z M22.359,98.254h-4v-1h4V98.254z M16.359,98.254h-4v-1
				h4V98.254z M10.359,98.254h-4v-1h4V98.254z M4.359,98.254H0.5v-0.359H0v-0.641h4.359V98.254z"/>
		</g>
		<g>
			<path fill="#404041" d="M82.822,103.276c0.504-0.081,1.161-0.135,1.846-0.135c1.161,0,1.917,0.215,2.494,0.647
				c0.63,0.468,1.026,1.216,1.026,2.287c0,1.161-0.423,1.962-1,2.458c-0.639,0.531-1.621,0.783-2.809,0.783
				c-0.711,0-1.225-0.045-1.558-0.09V103.276z M84.19,108.219c0.117,0.026,0.315,0.026,0.478,0.026
				c1.251,0.01,2.07-0.675,2.07-2.124c0-1.261-0.738-1.927-1.926-1.927c-0.297,0-0.504,0.027-0.622,0.055V108.219z"/>
			<path fill="#404041" d="M90.095,107.489c0.036,0.567,0.603,0.838,1.242,0.838c0.468,0,0.846-0.063,1.215-0.189l0.18,0.928
				c-0.45,0.188-1,0.278-1.593,0.278c-1.495,0-2.35-0.864-2.35-2.241c0-1.117,0.693-2.35,2.224-2.35
				c1.422,0,1.962,1.107,1.962,2.196c0,0.233-0.027,0.44-0.045,0.54H90.095z M91.706,106.554c0-0.334-0.144-0.893-0.774-0.893
				c-0.576,0-0.811,0.531-0.847,0.893H91.706z"/>
			<path fill="#404041" d="M94.756,104.852l0.594,2.044c0.108,0.378,0.18,0.72,0.252,1.07h0.027c0.072-0.359,0.144-0.692,0.243-1.07
				l0.567-2.044h1.44l-1.639,4.402h-1.368l-1.603-4.402H94.756z"/>
			<path fill="#404041" d="M101.201,104.339h-1.638v-1.152h4.663v1.152h-1.656v4.915h-1.369V104.339z"/>
			<path fill="#404041" d="M105.232,107.489c0.036,0.567,0.603,0.838,1.242,0.838c0.468,0,0.846-0.063,1.215-0.189l0.18,0.928
				c-0.45,0.188-1,0.278-1.593,0.278c-1.495,0-2.35-0.864-2.35-2.241c0-1.117,0.693-2.35,2.224-2.35
				c1.422,0,1.962,1.107,1.962,2.196c0,0.233-0.027,0.44-0.045,0.54H105.232z M106.844,106.554c0-0.334-0.144-0.893-0.774-0.893
				c-0.576,0-0.811,0.531-0.847,0.893H106.844z"/>
			<path fill="#404041" d="M112.596,108.191c0,0.414,0.018,0.819,0.072,1.062h-1.233l-0.081-0.44h-0.027
				c-0.288,0.351-0.738,0.539-1.26,0.539c-0.892,0-1.422-0.648-1.422-1.35c0-1.144,1.026-1.684,2.583-1.684v-0.055
				c0-0.242-0.126-0.576-0.801-0.576c-0.45,0-0.927,0.153-1.215,0.334l-0.252-0.883c0.306-0.171,0.909-0.396,1.71-0.396
				c1.467,0,1.927,0.865,1.927,1.909V108.191z M111.272,107.175c-0.72,0-1.278,0.17-1.278,0.693c0,0.351,0.234,0.521,0.541,0.521
				c0.333,0,0.621-0.225,0.711-0.504c0.018-0.072,0.027-0.153,0.027-0.234V107.175z"/>
			<path fill="#404041" d="M113.684,106.256c0-0.549-0.018-1.009-0.036-1.404h1.161l0.054,0.595h0.027
				c0.189-0.289,0.585-0.703,1.333-0.703c0.576,0,1.018,0.297,1.207,0.757h0.018c0.171-0.234,0.36-0.415,0.576-0.54
				c0.243-0.135,0.513-0.217,0.837-0.217c0.846,0,1.485,0.595,1.485,1.918v2.593h-1.332v-2.395c0-0.64-0.207-1.009-0.648-1.009
				c-0.324,0-0.54,0.217-0.639,0.478c-0.027,0.099-0.045,0.233-0.045,0.351v2.575h-1.333v-2.476c0-0.549-0.198-0.928-0.639-0.928
				c-0.351,0-0.558,0.271-0.639,0.486c-0.045,0.108-0.054,0.234-0.054,0.352v2.565h-1.332V106.256z"/>
			<path fill="#404041" d="M123.286,103.267c0.441-0.071,1.089-0.125,1.828-0.125c0.9,0,1.53,0.135,1.962,0.477
				c0.369,0.288,0.567,0.721,0.567,1.278c0,0.765-0.549,1.296-1.071,1.485v0.027c0.423,0.171,0.657,0.566,0.81,1.125
				c0.189,0.693,0.369,1.486,0.486,1.72h-1.405c-0.09-0.181-0.243-0.666-0.414-1.413c-0.171-0.766-0.432-0.964-0.999-0.973h-0.405
				v2.386h-1.359V103.267z M124.646,105.878h0.54c0.684,0,1.089-0.342,1.089-0.873c0-0.549-0.378-0.838-1.008-0.838
				c-0.333,0-0.522,0.019-0.621,0.045V105.878z"/>
			<path fill="#404041" d="M129.631,107.489c0.036,0.567,0.603,0.838,1.242,0.838c0.468,0,0.846-0.063,1.215-0.189l0.18,0.928
				c-0.45,0.188-0.999,0.278-1.593,0.278c-1.495,0-2.35-0.864-2.35-2.241c0-1.117,0.693-2.35,2.224-2.35
				c1.423,0,1.963,1.107,1.963,2.196c0,0.233-0.027,0.44-0.045,0.54H129.631z M131.243,106.554c0-0.334-0.144-0.893-0.774-0.893
				c-0.576,0-0.811,0.531-0.847,0.893H131.243z"/>
			<path fill="#404041" d="M134.293,104.852l0.594,2.044c0.109,0.378,0.182,0.72,0.252,1.07h0.027
				c0.072-0.359,0.145-0.692,0.244-1.07l0.566-2.044h1.441l-1.639,4.402h-1.369l-1.603-4.402H134.293z"/>
			<path fill="#404041" d="M139.459,103.628c0,0.377-0.279,0.684-0.738,0.684c-0.432,0-0.711-0.307-0.711-0.684
				c0-0.388,0.287-0.686,0.729-0.686S139.45,103.24,139.459,103.628z M138.045,109.254v-4.402h1.369v4.402H138.045z"/>
			<path fill="#404041" d="M141.565,107.489c0.037,0.567,0.604,0.838,1.242,0.838c0.469,0,0.848-0.063,1.217-0.189l0.18,0.928
				c-0.451,0.188-1,0.278-1.594,0.278c-1.494,0-2.35-0.864-2.35-2.241c0-1.117,0.693-2.35,2.225-2.35
				c1.422,0,1.961,1.107,1.961,2.196c0,0.233-0.025,0.44-0.045,0.54H141.565z M143.176,106.554c0-0.334-0.143-0.893-0.773-0.893
				c-0.576,0-0.811,0.531-0.846,0.893H143.176z"/>
			<path fill="#404041" d="M146.155,104.852l0.361,1.81c0.08,0.45,0.17,0.937,0.242,1.44h0.027c0.08-0.504,0.217-0.999,0.314-1.432
				l0.469-1.818h1.08l0.441,1.755c0.125,0.505,0.242,0.991,0.324,1.495h0.018c0.062-0.495,0.152-0.999,0.262-1.503l0.369-1.747
				h1.342l-1.352,4.402h-1.277l-0.414-1.54c-0.117-0.432-0.199-0.828-0.289-1.377h-0.018c-0.082,0.549-0.172,0.963-0.279,1.369
				l-0.441,1.548h-1.287l-1.287-4.402H146.155z"/>
		</g>
	</g>
	<g>
		<g>
			<rect x="0.638" y="244.803" fill="#E8E8E8" width="231.583" height="17.5"/>
			<path fill="#A1A0A0" d="M232.721,262.803h-1.168v-1h0.168v-2.832h1V262.803z M229.553,262.803h-4v-1h4V262.803z M223.553,262.803
				h-4v-1h4V262.803z M217.553,262.803h-4v-1h4V262.803z M211.553,262.803h-4v-1h4V262.803z M205.553,262.803h-4v-1h4V262.803z
				 M199.553,262.803h-4v-1h4V262.803z M193.553,262.803h-4v-1h4V262.803z M187.553,262.803h-4v-1h4V262.803z M181.553,262.803h-4
				v-1h4V262.803z M175.553,262.803h-4v-1h4V262.803z M169.553,262.803h-4v-1h4V262.803z M163.553,262.803h-4v-1h4V262.803z
				 M157.553,262.803h-4v-1h4V262.803z M151.553,262.803h-4v-1h4V262.803z M145.553,262.803h-4v-1h4V262.803z M139.553,262.803h-4
				v-1h4V262.803z M133.554,262.803h-4v-1h4V262.803z M127.554,262.803h-4v-1h4V262.803z M121.554,262.803h-4v-1h4V262.803z
				 M115.554,262.803h-4v-1h4V262.803z M109.554,262.803h-4v-1h4V262.803z M103.554,262.803h-4v-1h4V262.803z M97.554,262.803h-4v-1
				h4V262.803z M91.554,262.803h-4v-1h4V262.803z M85.554,262.803h-4v-1h4V262.803z M79.554,262.803h-4v-1h4V262.803z
				 M73.554,262.803h-4v-1h4V262.803z M67.554,262.803h-4v-1h4V262.803z M61.554,262.803h-4v-1h4V262.803z M55.554,262.803h-4v-1h4
				V262.803z M49.554,262.803h-4v-1h4V262.803z M43.554,262.803h-4v-1h4V262.803z M37.554,262.803h-4v-1h4V262.803z M31.554,262.803
				h-4v-1h4V262.803z M25.554,262.803h-4v-1h4V262.803z M19.554,262.803h-4v-1h4V262.803z M13.554,262.803h-4v-1h4V262.803z
				 M7.554,262.803h-4v-1h4V262.803z M1.554,262.803H0.138v-3.584h1v2.584h0.416V262.803z M1.138,257.219h-1v-4h1V257.219z
				 M232.721,256.971h-1v-4h1V256.971z M1.138,251.219h-1v-4h1V251.219z M232.721,250.971h-1v-4h1V250.971z M232.221,245.303h-4v-1
				h4.5v0.668h-0.5V245.303z M226.221,245.303h-4v-1h4V245.303z M220.221,245.303h-4v-1h4V245.303z M214.221,245.303h-4v-1h4
				V245.303z M208.221,245.303h-4v-1h4V245.303z M202.221,245.303h-4v-1h4V245.303z M196.221,245.303h-4v-1h4V245.303z
				 M190.221,245.303h-4v-1h4V245.303z M184.221,245.303h-4v-1h4V245.303z M178.221,245.303h-4v-1h4V245.303z M172.221,245.303h-4
				v-1h4V245.303z M166.221,245.303h-4v-1h4V245.303z M160.221,245.303h-4v-1h4V245.303z M154.221,245.303h-4v-1h4V245.303z
				 M148.221,245.303h-4v-1h4V245.303z M142.221,245.303h-4v-1h4V245.303z M136.221,245.303h-4v-1h4V245.303z M130.222,245.303h-4
				v-1h4V245.303z M124.222,245.303h-4v-1h4V245.303z M118.222,245.303h-4v-1h4V245.303z M112.222,245.303h-4v-1h4V245.303z
				 M106.222,245.303h-4v-1h4V245.303z M100.222,245.303h-4v-1h4V245.303z M94.222,245.303h-4v-1h4V245.303z M88.222,245.303h-4v-1
				h4V245.303z M82.222,245.303h-4v-1h4V245.303z M76.222,245.303h-4v-1h4V245.303z M70.222,245.303h-4v-1h4V245.303z
				 M64.222,245.303h-4v-1h4V245.303z M58.222,245.303h-4v-1h4V245.303z M52.222,245.303h-4v-1h4V245.303z M46.222,245.303h-4v-1h4
				V245.303z M40.222,245.303h-4v-1h4V245.303z M34.222,245.303h-4v-1h4V245.303z M28.222,245.303h-4v-1h4V245.303z M22.222,245.303
				h-4v-1h4V245.303z M16.222,245.303h-4v-1h4V245.303z M10.222,245.303h-4v-1h4V245.303z M4.222,245.303H0.638v-0.084h-0.5v-0.916
				h4.084V245.303z"/>
		</g>
		<g>
			<path fill="#404041" d="M83.101,250.825c0.504-0.081,1.161-0.135,1.846-0.135c1.161,0,1.917,0.215,2.494,0.647
				c0.63,0.468,1.026,1.216,1.026,2.287c0,1.161-0.423,1.962-1,2.458c-0.639,0.531-1.621,0.783-2.809,0.783
				c-0.711,0-1.225-0.045-1.558-0.09V250.825z M84.469,255.768c0.117,0.026,0.315,0.026,0.478,0.026
				c1.251,0.01,2.07-0.675,2.07-2.124c0-1.261-0.738-1.927-1.926-1.927c-0.297,0-0.504,0.027-0.622,0.055V255.768z"/>
			<path fill="#404041" d="M90.373,255.038c0.036,0.567,0.603,0.838,1.242,0.838c0.468,0,0.846-0.063,1.215-0.189l0.18,0.928
				c-0.45,0.188-1,0.278-1.593,0.278c-1.495,0-2.35-0.864-2.35-2.241c0-1.117,0.693-2.35,2.224-2.35
				c1.422,0,1.962,1.107,1.962,2.196c0,0.233-0.027,0.44-0.045,0.54H90.373z M91.984,254.103c0-0.334-0.144-0.893-0.774-0.893
				c-0.576,0-0.811,0.531-0.847,0.893H91.984z"/>
			<path fill="#404041" d="M95.035,252.4l0.594,2.044c0.108,0.378,0.18,0.72,0.252,1.07h0.027c0.072-0.359,0.144-0.692,0.243-1.07
				l0.567-2.044h1.44l-1.639,4.402h-1.368l-1.603-4.402H95.035z"/>
			<path fill="#404041" d="M101.479,251.888h-1.638v-1.152h4.663v1.152h-1.656v4.915h-1.369V251.888z"/>
			<path fill="#404041" d="M105.511,255.038c0.036,0.567,0.603,0.838,1.242,0.838c0.468,0,0.846-0.063,1.215-0.189l0.18,0.928
				c-0.45,0.188-1,0.278-1.593,0.278c-1.495,0-2.35-0.864-2.35-2.241c0-1.117,0.693-2.35,2.224-2.35
				c1.422,0,1.962,1.107,1.962,2.196c0,0.233-0.027,0.44-0.045,0.54H105.511z M107.122,254.103c0-0.334-0.144-0.893-0.774-0.893
				c-0.576,0-0.811,0.531-0.847,0.893H107.122z"/>
			<path fill="#404041" d="M112.874,255.74c0,0.414,0.018,0.819,0.072,1.062h-1.233l-0.081-0.44h-0.027
				c-0.288,0.351-0.738,0.539-1.26,0.539c-0.892,0-1.422-0.648-1.422-1.35c0-1.144,1.026-1.684,2.583-1.684v-0.055
				c0-0.242-0.126-0.576-0.801-0.576c-0.45,0-0.927,0.153-1.215,0.334l-0.252-0.883c0.306-0.171,0.909-0.396,1.71-0.396
				c1.467,0,1.927,0.865,1.927,1.909V255.74z M111.55,254.724c-0.72,0-1.278,0.17-1.278,0.693c0,0.351,0.234,0.521,0.541,0.521
				c0.333,0,0.621-0.225,0.711-0.504c0.018-0.072,0.027-0.153,0.027-0.234V254.724z"/>
			<path fill="#404041" d="M113.962,253.805c0-0.549-0.018-1.009-0.036-1.404h1.161l0.054,0.595h0.027
				c0.189-0.289,0.585-0.703,1.333-0.703c0.576,0,1.018,0.297,1.207,0.757h0.018c0.171-0.234,0.36-0.415,0.576-0.54
				c0.243-0.135,0.513-0.217,0.837-0.217c0.846,0,1.485,0.595,1.485,1.918v2.593h-1.332v-2.395c0-0.64-0.207-1.009-0.648-1.009
				c-0.324,0-0.54,0.217-0.639,0.478c-0.027,0.099-0.045,0.233-0.045,0.351v2.575h-1.333v-2.476c0-0.549-0.198-0.928-0.639-0.928
				c-0.351,0-0.558,0.271-0.639,0.486c-0.045,0.108-0.054,0.234-0.054,0.352v2.565h-1.332V253.805z"/>
			<path fill="#404041" d="M123.564,250.815c0.441-0.071,1.089-0.125,1.828-0.125c0.9,0,1.53,0.135,1.962,0.477
				c0.369,0.288,0.567,0.721,0.567,1.278c0,0.765-0.549,1.296-1.071,1.485v0.027c0.423,0.171,0.657,0.566,0.81,1.125
				c0.189,0.693,0.369,1.486,0.486,1.72h-1.405c-0.09-0.181-0.243-0.666-0.414-1.413c-0.171-0.766-0.432-0.964-0.999-0.973h-0.405
				v2.386h-1.359V250.815z M124.924,253.427h0.54c0.684,0,1.089-0.342,1.089-0.873c0-0.549-0.378-0.838-1.008-0.838
				c-0.333,0-0.522,0.019-0.621,0.045V253.427z"/>
			<path fill="#404041" d="M129.91,255.038c0.036,0.567,0.603,0.838,1.242,0.838c0.468,0,0.846-0.063,1.215-0.189l0.18,0.928
				c-0.45,0.188-0.999,0.278-1.593,0.278c-1.495,0-2.35-0.864-2.35-2.241c0-1.117,0.693-2.35,2.224-2.35
				c1.423,0,1.963,1.107,1.963,2.196c0,0.233-0.027,0.44-0.045,0.54H129.91z M131.521,254.103c0-0.334-0.144-0.893-0.774-0.893
				c-0.576,0-0.811,0.531-0.847,0.893H131.521z"/>
			<path fill="#404041" d="M134.571,252.4l0.596,2.044c0.107,0.378,0.18,0.72,0.252,1.07h0.027c0.07-0.359,0.143-0.692,0.242-1.07
				l0.566-2.044h1.441l-1.639,4.402h-1.369l-1.602-4.402H134.571z"/>
			<path fill="#404041" d="M139.737,251.177c0,0.377-0.279,0.684-0.738,0.684c-0.432,0-0.711-0.307-0.711-0.684
				c0-0.388,0.289-0.686,0.729-0.686C139.458,250.491,139.729,250.789,139.737,251.177z M138.325,256.803V252.4h1.367v4.402H138.325
				z"/>
			<path fill="#404041" d="M141.844,255.038c0.035,0.567,0.602,0.838,1.242,0.838c0.467,0,0.846-0.063,1.215-0.189l0.18,0.928
				c-0.449,0.188-1,0.278-1.594,0.278c-1.494,0-2.35-0.864-2.35-2.241c0-1.117,0.693-2.35,2.225-2.35
				c1.422,0,1.963,1.107,1.963,2.196c0,0.233-0.027,0.44-0.045,0.54H141.844z M143.456,254.103c0-0.334-0.145-0.893-0.775-0.893
				c-0.576,0-0.811,0.531-0.846,0.893H143.456z"/>
			<path fill="#404041" d="M146.434,252.4l0.359,1.81c0.08,0.45,0.17,0.937,0.242,1.44h0.027c0.082-0.504,0.217-0.999,0.316-1.432
				l0.467-1.818h1.08l0.441,1.755c0.127,0.505,0.244,0.991,0.324,1.495h0.018c0.064-0.495,0.154-0.999,0.262-1.503l0.369-1.747
				h1.342l-1.352,4.402h-1.277l-0.414-1.54c-0.117-0.432-0.199-0.828-0.289-1.377h-0.018c-0.08,0.549-0.17,0.963-0.279,1.369
				l-0.441,1.548h-1.287l-1.287-4.402H146.434z"/>
		</g>
	</g>
	<g>
		<g>
			<path fill="#404041" d="M209.283,131.776l-1.225-0.867c3.575-5.047,7.837-13.756,7.837-26.596
				c0-22.72-13.436-27.747-13.571-27.795l0.496-1.416c0.596,0.208,14.575,5.364,14.575,29.21
				C217.395,117.548,212.983,126.552,209.283,131.776z"/>
		</g>
		<g>
			<g>
				<polygon fill="#404041" points="207.176,124.376 209.757,129.831 215.476,131.761 202.573,137.905 				"/>
			</g>
		</g>
	</g>
	<g>
		<g>
			<rect x="35.488" y="224.553" fill="#404041" width="1.5" height="49.046"/>
		</g>
		<g>
			<g>
				<polygon fill="#404041" points="30.683,269.386 36.238,271.745 41.792,269.386 36.238,282.553 				"/>
			</g>
		</g>
	</g>
</g>
</svg>
