<?xml version="1.0" encoding="utf-8"?>
<!-- Generator: Adobe Illustrator 15.0.0, SVG Export Plug-In . SVG Version: 6.00 Build 0)  -->
<!DOCTYPE svg PUBLIC "-//W3C//DTD SVG 1.1//EN" "http://www.w3.org/Graphics/SVG/1.1/DTD/svg11.dtd">
<svg version="1.1" id="Layer_1" xmlns="http://www.w3.org/2000/svg" xmlns:xlink="http://www.w3.org/1999/xlink" x="0px" y="0px"
	 width="313.715px" height="445.15px" viewBox="424.807 25.92 313.715 445.15"
	 enable-background="new 424.807 25.92 313.715 445.15" xml:space="preserve">
<g>
	<path fill="#E13B3B" d="M592.644,61.238c-5.357-13.368-8.163-24.348-10.979-35.318c-2.816,10.97-5.623,21.95-10.98,35.318
		c-5.348,13.369-13.235,29.135-24.216,46.871c-10.98,17.746-25.063,37.451-38.859,56.32l-37.728,50.952
		c-10.408,14.083-17.735,24.216-24.205,35.482c-6.48,11.266-12.113,23.654-15.776,36.604c-3.664,12.95-5.348,26.46-5.062,40.257
		c0.285,13.797,2.53,27.879,6.755,41.4c4.225,13.512,10.419,26.461,19.145,38.574c8.735,12.103,19.991,23.369,32.094,32.369
		c12.113,9.021,25.062,15.767,37.727,20.553c12.685,4.786,25.062,7.603,35.196,9.021c10.144,1.408,18.021,1.419,25.91,1.429
		c7.888-0.01,15.766-0.021,25.909-1.429c10.134-1.418,22.512-4.234,35.196-9.021c12.664-4.786,25.614-11.531,37.727-20.553
		c12.104-9,23.359-20.267,32.094-32.369c8.726-12.113,14.92-25.062,19.145-38.574c4.225-13.521,6.47-27.604,6.756-41.4
		c0.285-13.797-1.398-27.308-5.062-40.257c-3.664-12.95-9.297-25.338-15.777-36.604c-6.47-11.266-13.796-21.399-24.205-35.482
		l-37.727-50.952c-13.797-18.869-27.88-38.574-38.86-56.32C605.88,90.373,597.991,74.607,592.644,61.238z"/>
</g>
<text transform="matrix(1 0 0 1 316.8013 518.5537)" font-family="'HelveticaNeue-Bold'" font-size="0.051">Created by Alex Muravev</text>
<text transform="matrix(1 0 0 1 316.8013 518.6045)" font-family="'HelveticaNeue-Bold'" font-size="0.051">from the Noun Project</text>
</svg>
