<?xml version="1.0" encoding="utf-8"?>
<!-- Generator: Adobe Illustrator 15.0.0, SVG Export Plug-In . SVG Version: 6.00 Build 0)  -->
<!DOCTYPE svg PUBLIC "-//W3C//DTD SVG 1.1//EN" "http://www.w3.org/Graphics/SVG/1.1/DTD/svg11.dtd">
<svg version="1.1" id="Layer_1" xmlns="http://www.w3.org/2000/svg" xmlns:xlink="http://www.w3.org/1999/xlink" x="0px" y="0px"
	 width="144.08px" height="143.652px" viewBox="0 0 144.08 143.652" enable-background="new 0 0 144.08 143.652"
	 xml:space="preserve">
<g>
	<path fill="#EF4136" d="M138.787,68.122c0,25.466-14.262,47.601-35.232,58.854c-5.553,2.979-5.887,6.174-15.867,8.571
		c-9.981,2.397-13.077,6.73-17.731,6.73c-7.376,0-9.666-7.833-19.024-10.815c-6.081-2.026-11.773-4.903-16.936-8.49
		C16.649,110.918,5.293,90.847,5.293,68.122c0-36.863,29.884-66.747,66.747-66.747C108.904,1.375,138.787,31.259,138.787,68.122z"/>
	<g>
		<path fill="#FFFFFF" d="M79.707,101.883c0,1.429-1.481,2.914-4.446,4.467c-2.96,1.552-5.818,2.325-8.57,2.325
			c-5.758,0-8.761-2.975-9.011-8.93c-3.17,6.207-8.092,9.309-14.766,9.309c-3.589,0-6.55-1.071-8.886-3.209
			c-2.337-2.137-3.505-4.884-3.505-8.237c0-6.875,4.112-12.329,12.339-16.354c2.824-1.339,7.727-2.682,14.706-4.025v-3.145
			c0-7.378-0.378-12.242-1.132-14.59c-1.344-4.277-4.362-6.416-9.058-6.416c-2.936,0-5.389,0.797-7.357,2.39
			c-1.972,1.594-2.957,3.606-2.957,6.038c0,0.672,0.511,1.006,1.538,1.006c1.022,0,1.944,0.503,2.767,1.51
			c0.819,1.007,1.23,2.137,1.23,3.396c0,3.691-1.826,5.536-5.478,5.536c-1.91,0-3.486-0.651-4.731-1.951
			c-1.246-1.3-1.867-2.954-1.867-4.968c0-3.941,1.551-7.337,4.654-10.189c3.438-3.101,8.218-4.654,14.34-4.654
			c9.224,0,14.884,2.515,16.981,7.547c0.754,1.93,1.132,5.745,1.132,11.447v23.521c0,3.859,0.041,6.124,0.126,6.794
			c0.419,3.019,1.635,4.525,3.646,4.525c2.348,0,4.277-0.834,5.786-2.514c0.839-0.922,1.466-1.385,1.888-1.385
			C79.495,101.128,79.707,101.381,79.707,101.883z M57.568,88.55v-9.183c-6.199,1.429-10.644,3.294-13.33,5.599
			c-2.686,2.307-4.029,5.39-4.029,9.244c0,2.685,0.765,4.888,2.294,6.604c1.529,1.72,3.451,2.58,5.767,2.58
			c3.553,0,6.402-2.013,8.553-6.038C57.319,96.433,57.568,93.501,57.568,88.55z"/>
		<path fill="#FFFFFF" d="M111.697,106.79c0,0.756-0.713,1.131-2.138,1.131c0.082,0-0.92-0.086-3.018-0.251
			c-2.519-0.166-4.613-0.252-6.288-0.252H87.171c-0.422,0.336-0.926,0.503-1.511,0.503c-0.921,0-1.384-0.312-1.384-0.93
			c0-0.89,0.839-1.334,2.519-1.334c3.185-0.082,4.925-0.315,5.221-0.692c0.289-0.376,0.437-2.116,0.437-5.22V61.632
			c-0.081-2.095-0.188-3.334-0.314-3.71c-0.122-0.377-0.647-0.566-1.573-0.566h-3.643c-0.341,0-0.758,0-1.262,0
			c-0.921,0-1.384-0.293-1.384-0.88c0-0.513,0.704-0.806,2.108-0.88c5.545-0.245,10.302-1.551,14.273-3.92l1.246-0.735
			c0.658,1.256,0.99,3.557,0.99,6.903c0-0.167,0,0.251,0,1.253c0,1.006,0,2.639,0,4.896v34.261c0,3.347,0.062,5.312,0.188,5.896
			c0.128,0.585,0.565,0.965,1.324,1.13c1.255,0.335,3.1,0.505,5.53,0.505C111.112,105.785,111.697,106.12,111.697,106.79z
			 M102.264,28.424c0,3.774-1.885,5.661-5.658,5.661c-1.594,0-2.937-0.523-4.024-1.573c-1.091-1.047-1.635-2.326-1.635-3.837
			c0-3.939,1.884-5.911,5.659-5.911C100.379,22.765,102.264,24.651,102.264,28.424z"/>
	</g>
</g>
</svg>
