<?xml version="1.0" encoding="utf-8"?>
<!-- Generator: Adobe Illustrator 15.0.0, SVG Export Plug-In . SVG Version: 6.00 Build 0)  -->
<!DOCTYPE svg PUBLIC "-//W3C//DTD SVG 1.1//EN" "http://www.w3.org/Graphics/SVG/1.1/DTD/svg11.dtd">
<svg version="1.1" xmlns="http://www.w3.org/2000/svg" xmlns:xlink="http://www.w3.org/1999/xlink" x="0px" y="0px"
	 width="443.627px" height="192.529px" viewBox="0 0 443.627 192.529" enable-background="new 0 0 443.627 192.529"
	 xml:space="preserve">
<g id="Layer_1">
	<g>
		<defs>
			<path id="XMLID_1_" d="M368.661,17.689c-4.2-9.88-18.04-16.56-19.76-17.36c-1.323-0.572-2.851-0.389-4,0.48L334.1,9.289
				c-2.124-1.583-4.104-3.35-5.92-5.28c-1.177-1.319-3.079-1.709-4.68-0.96c-6.168,2.742-10.93,7.91-13.16,14.28
				c-1.071,3.17-1.625,6.493-1.64,9.84c-10.675,4.983-20.544,11.536-29.28,19.44c-7.48-2.12-32.601-7.6-77.16-1.64
				c-37.04,4.92-61.88,44-70.76,60.6c-8,14.601-14.56,32-14.681,42.601c-18.279,14.192-15.569,11.02-33.152,28.52
				c-9,5.833-70.917,2.25-83.667,1.25l0.001,10.27c0,0.775,56.832,0,78.498,0c17.501,0,16.168-16.687,41.881-31.68
				c17.36,8.36,18.641,31.68,18.641,32c0,2.209,1.791,4,4,4h48.76c2.209,0.008,4.006-1.777,4.013-3.986
				c0-0.111-0.004-0.223-0.013-0.334h23.72c1.859,0.064,3.518-1.162,4-2.959c0.892-3.721-0.045-7.644-2.521-10.561
				c-2.734-2.896-6.402-4.737-10.359-5.2c30.04,1.8,66.68-0.64,82.28-7c0.18,8.302-1.617,16.528-5.24,24
				c-1.105,1.913-0.449,4.36,1.464,5.464c0.601,0.348,1.282,0.532,1.976,0.536h45.2c2.209,0.006,4.005-1.78,4.01-3.989
				c0-0.098-0.003-0.193-0.01-0.291h28.8c2.209,0.029,4.023-1.738,4.052-3.947c0.003-0.232-0.015-0.463-0.052-0.692
				c-2.08-12.44-18.04-14.521-26.119-14.76l2.72-31.44l3.68-4.88c11.48-15.239,33.521-28,52.96-39.319
				c10.277-5.695,20.034-12.28,29.16-19.681l0.56-0.48c6.08-5.52,9-10.96,6.881-16.76C436.1,37.009,383.14,20.449,368.661,17.689z
				 M337.02,179.809"/>
		</defs>
		<use xlink:href="#XMLID_1_"  overflow="visible" fill="#939598"/>
		<clipPath id="XMLID_3_">
			<use xlink:href="#XMLID_1_"  overflow="visible"/>
		</clipPath>
	</g>
	<circle cx="372.621" cy="48.929" r="6"/>
</g>
<g id="Layer_2">
	<path d="M435.815,54.025c0,0,2.5,2.164,2.562,5.289s-2.25,5.812-2.25,5.812s-2-2.914-2.062-5.551S435.815,54.025,435.815,54.025z"
		/>
</g>
</svg>
