<?xml version="1.0" encoding="utf-8"?>
<!-- Generator: Adobe Illustrator 15.0.0, SVG Export Plug-In . SVG Version: 6.00 Build 0)  -->
<!DOCTYPE svg PUBLIC "-//W3C//DTD SVG 1.1//EN" "http://www.w3.org/Graphics/SVG/1.1/DTD/svg11.dtd">
<svg version="1.1" xmlns="http://www.w3.org/2000/svg" xmlns:xlink="http://www.w3.org/1999/xlink" x="0px" y="0px"
	 width="371.808px" height="415.728px" viewBox="0 0 371.808 415.728" enable-background="new 0 0 371.808 415.728"
	 xml:space="preserve">
<g id="Layer_2">
	<path fill="#FFFFFF" d="M303.908,389.093c-31.802,5.544-73.677,8.454-117.937,8.454s-86.002-3.049-117.938-8.454
		c-43.463-7.482-48.765-16.075-49.294-17.322c0-1.108,0-308.065,0-332.179c16.565,13.858,85.206,24.252,167.233,24.252
		c29.683,0,57.643-1.386,82.025-3.742l31.272-3.88l0,0c1.725-0.277,3.314-0.555,4.902-0.832l30.216-6.929
		c8.613-2.633,14.973-5.682,18.684-8.731c0,24.113,0,330.932,0,332.18C352.674,373.018,347.374,381.61,303.908,389.093z"/>
</g>
<g id="Layer_1">
	<path fill="#EE2424" d="M185.904,0C83.232,0,0,14.256,0,31.968V383.76c0,17.568,83.232,31.968,185.904,31.968
		s185.904-14.256,185.904-31.968V31.968C371.808,14.4,288.576,0,185.904,0z M303.355,388.093
		c-31.802,5.544-73.677,8.454-117.937,8.454c-44.259,0-86.002-3.049-117.938-8.454c-43.463-7.482-48.765-16.075-49.294-17.322
		c0-1.108,0-308.065,0-332.179C34.75,52.45,103.392,62.844,185.418,62.844c29.683,0,57.643-1.386,82.026-3.742v215.495
		c0,11.225,7.024,20.37,15.637,20.37c8.614,0,15.636-9.146,15.636-20.37V55.222l0,0c1.725-0.277,3.314-0.555,4.902-0.832v159.23
		c0,8.037,5.036,14.551,11.134,14.551c6.095,0,11.13-6.514,11.13-14.551v-69.014c0.265,0,0.399,0,0.663,0
		c4.107,0,7.289-4.296,7.289-9.562V47.461c8.613-2.633,14.973-5.682,18.684-8.731c0,24.113,0,330.932,0,332.18
		C352.122,372.018,346.821,380.61,303.355,388.093z"/>
</g>
</svg>
