<?xml version="1.0" encoding="utf-8"?>
<!-- Generator: Adobe Illustrator 15.0.0, SVG Export Plug-In . SVG Version: 6.00 Build 0)  -->
<!DOCTYPE svg PUBLIC "-//W3C//DTD SVG 1.1//EN" "http://www.w3.org/Graphics/SVG/1.1/DTD/svg11.dtd">
<svg version="1.1" xmlns="http://www.w3.org/2000/svg" xmlns:xlink="http://www.w3.org/1999/xlink" x="0px" y="0px"
	 width="371.808px" height="415.728px" viewBox="0 0 371.808 415.728" enable-background="new 0 0 371.808 415.728"
	 xml:space="preserve">
<g id="Layer_2">
	<path fill="#DCDBDB" d="M303.908,389.093c-31.802,5.544-73.677,8.454-117.937,8.454s-86.002-3.049-117.938-8.454
		c-43.463-7.482-48.765-16.075-49.294-17.322c0-1.108,0-308.065,0-332.179c16.565,13.858,85.206,24.252,167.233,24.252
		c29.683,0,57.643-1.386,82.025-3.742l31.272-3.88l0,0c1.725-0.277,3.314-0.555,4.902-0.832l30.216-6.929
		c8.613-2.633,14.973-5.682,18.684-8.731c0,24.113,0,330.932,0,332.18C352.674,373.018,347.374,381.61,303.908,389.093z"/>
</g>
<g id="Layer_1">
	<path fill="#EE2424" d="M185.904,0C83.232,0,0,14.256,0,31.968V383.76c0,17.568,83.232,31.968,185.904,31.968
		s185.904-14.256,185.904-31.968V31.968C371.808,14.4,288.576,0,185.904,0z M303.355,388.093
		c-31.802,5.544-73.677,8.454-117.937,8.454c-44.259,0-86.002-3.049-117.938-8.454c-43.463-7.482-48.765-16.075-49.294-17.322
		c0-1.108,0-308.065,0-332.179c3.75,3.137,7.359,6.096,15.997,8.798c2.689,0.841,0.17,30.822,2.045,43.447
		s22.592,9.394,26.375,2.096s0.597-39.278,6.508-38.293c10.552,1.759,3.742,140.072,14.742,170.572c7,17.5,18,18,35.5,19.5
		s38,0,45-19.5c25.5-62.5,16.5-101.833,22.5-108.667s-0.691,11.981,2,25.167c1.725,8.448,8.096,12.378,12,12.833
		c3.173,0.37,8.604,0.452,11-8.333c5.154-18.904,1.832-56.333,5.666-55.667s0.007,146.667,7.337,172s21.483,30.842,36.74,32.421
		s36.265-25.777,37.121-31.81s4.902-50.611,4.902-50.611c0,8.037,5.036,15.625,11.134,15.625c6.095,0,11.13-6.514,11.13-14.551
		v-69.014c0.265,0,0.399,0,0.663,0c4.107,0,7.289-4.296,7.289-9.562V47.461c8.613-2.633,14.973-5.682,18.684-8.731
		c0,24.113,0,330.932,0,332.18C352.122,372.018,346.821,380.61,303.355,388.093z"/>
</g>
</svg>
