<?xml version="1.0" encoding="utf-8"?>
<!-- Generator: Adobe Illustrator 15.0.0, SVG Export Plug-In . SVG Version: 6.00 Build 0)  -->
<!DOCTYPE svg PUBLIC "-//W3C//DTD SVG 1.1//EN" "http://www.w3.org/Graphics/SVG/1.1/DTD/svg11.dtd">
<svg version="1.1" id="Layer_1" xmlns="http://www.w3.org/2000/svg" xmlns:xlink="http://www.w3.org/1999/xlink" x="0px" y="0px"
	 width="469.944px" height="82.035px" viewBox="0 0 469.944 82.035" enable-background="new 0 0 469.944 82.035"
	 xml:space="preserve">
<g>
	<ellipse fill="#EF4237" cx="445.372" cy="56.4" rx="24.572" ry="5.433"/>
	<ellipse fill="#EF4237" cx="39.402" cy="71.792" rx="30.461" ry="5.537"/>
	<ellipse fill="#EF4237" cx="408.41" cy="76.914" rx="19.518" ry="5.122"/>
</g>
<path fill="#EF4237" d="M417.258,14.104c16.802,1.789,35.485,9.072,28.108,12.96c-7.372,3.888-63.535,11.483-60.943,16.325
	s13.364,7.434,1.763,11.565c-11.603,4.132-60.513,1.462-79.093,6.874c-18.574,5.412-27.299,12.395-60.912,10.901
	c-33.612-1.492-50.538-6.044-73.437-4.935c-22.893,1.114-61.062,3.831-85.826-10.026c-17.056-7.807-73.976-1.508-86.738-14.38
	c0,0-4.189-5.697,27.812-10.363c32-4.666,0.005-14.334,33.743-18.865C95.472,9.63,164.601,9.771,192.226,2.875
	c0,0,26.438-6.47,90.959,0C347.71,9.355,356.347,7.624,417.258,14.104z"/>
</svg>
