<svg version="1.1" xmlns="http://www.w3.org/2000/svg" width="1820" height="1024" viewBox="0 0 1820 1024">
<style>.shade1{opacity:0.5;fill:#ffffff;} .shade2{opacity:0.7;fill:#ffffff;}</style>

<!--<path class="shade1" d="M747.131 543.317c27.286-36.38 40.788-115.679 128.013-170.684s121.652 30.826 159.918 0-3.16-32.88 115.358-92.93 254.42-41.086 254.42-41.086 167.506 0 214.914 37.926 66.37 70.824 53.728 114.424-53.728 97.329-116.938 135.255-243.358 79.012-406.123 91.654-140.642-69.531-267.062-28.444-163.513-9.733-136.227-46.115z"></path>

<path class="shade2" d="M777.197 536.688c22.61-27.951 31.923-87.223 106.074-131.129s106.703 18.49 139.029-5.735-3.753-24.263 97.449-73.031c101.201-48.768 219.932-39.582 219.932-39.582s145.624-6.007 187.999 20.409c42.376 26.415 59.871 50.125 50.209 82.901-9.657 32.777-43.733 74.084-97.527 104.465s-209.154 67.303-350.273 82.513c-141.119 15.208-124.399-46.504-233.050-11.509-108.65 34.993-142.451-1.353-119.843-29.303z"></path>-->



<path class="shade1" d="M826.281 378.6c27.286-36.38 40.788-115.679 128.013-170.684s121.652 30.826 159.918 0-3.16-32.882 115.358-92.931 254.42-41.086 254.42-41.086 167.506 0 214.914 37.926 66.37 70.824 53.728 114.424-53.728 97.329-116.938 135.255-243.358 79.012-406.123 91.654-140.642-69.531-267.062-28.444-163.513-9.733-136.227-46.113z"></path>
<path class="shade2" d="M856.347 371.97c22.61-27.951 31.923-87.223 106.074-131.129s63.055 6.929 139.029-5.735-3.753-24.263 97.449-73.031c101.201-48.768 121.391-41.85 198.19-61.323 128.447-10.178 200.897 10.79 227.069 24.823s68.425 100.23 68.425 100.23 26.657 59.15-133.069 104.465-209.154 67.304-350.273 82.513-124.399-46.504-233.050-11.509c-108.65 34.991-142.451-1.354-119.843-29.304z"></path>

<path class="shade1" d="M249.948 330.27c106.129 35.093 118.53-53.103 118.53-53.103s17.106-10.433 0-127.064-91.925-82.47-132.753-35.064c-32.514 27.286-67.954 93.228-42.67 146.957z"></path>
<path class="shade2" d="M257.199 279.876c80.747 26.7 90.183-40.402 90.183-40.402s13.015-7.938 0-96.675-69.94-62.747-101.005-26.679c-24.737 20.761-51.703 70.931-32.465 111.81z"></path>

<path class="shade1" d="M120.788 473.385c47.689-56.053 61.815-26.074 151.884-40.295s120.884-30.813 220.433 0 56.886 99.551 182.509 125.623 156.435 137.475 282.058 189.62c125.625 52.145 177.768 61.626 251.247 59.256s101.923-56.887 210.953-45.035 132.327 73.592 186.991 109.293 249.041-24.917 149.585 63.618-270.113-10.897-431.29-15.638-343.677 104.709-440.865 61.626-329.467-65.901-459.83-45.988-194.928 79.637-303.676 0-38.209-157.856 0-278.738-47.689-127.289 0.002-183.342z"></path>
<path class="shade2" d="M148.437 525.705c43.417-43.313 56.277-20.148 138.278-31.139 82.002-10.987 110.055-23.81 200.687 0 90.633 23.811 51.789 76.928 166.158 97.076s142.421 136.195 256.793 176.488c114.369 40.295 135.11 52.148 228.738 56.887s169.93-39.762 269.195-30.603 255.534 111.238 251.079 144.375-267.705-43.744-414.448-47.406c-146.734-3.663-212.885 85.438-301.367 52.147-88.483-33.289-399.956-76.149-518.642-60.759-118.684 15.387-177.465 61.536-276.472 0s-34.784-121.979 0-215.389c34.788-93.413-43.416-98.366 0.002-141.677z"></path>

</svg>
